<?xml version="1.0" standalone="no"?><!DOCTYPE svg PUBLIC "-//W3C//DTD SVG 1.1//EN" "http://www.w3.org/Graphics/SVG/1.1/DTD/svg11.dtd"><svg t="1665104127696" class="icon" viewBox="0 0 1024 1024" version="1.1" xmlns="http://www.w3.org/2000/svg" p-id="3203" xmlns:xlink="http://www.w3.org/1999/xlink" width="200" height="200"><path d="M766.8736 257.13777778c0-140.75448889-114.10773333-254.86222222-254.86222222-254.86222223s-254.86222222 114.10773333-254.86222223 254.86222223c0 87.49511111 44.10026667 164.69333333 111.28604445 210.57991111-18.78471111 6.37155555-37.34186667 13.99466667-55.61457778 22.89208889-59.84711111 29.13848889-113.99395555 70.38293333-160.90453333 122.58417777-93.66186667 104.22044445-147.38773333 241.57297778-147.38773334 376.832 0 18.85297778 15.28035555 34.13333333 34.13333334 34.13333334s34.13333333-15.28035555 34.13333333-34.13333334c0-254.54364445 205.24373333-477.82115555 439.20497778-477.82115555 1.39946667 0 2.77617778-0.09102222 4.13013333-0.26168889C654.98453333 509.7472 766.8736 396.51555555 766.8736 257.13777778z m-254.86222222 185.74222222c-49.60711111 0-96.256-19.31946667-131.33368889-54.39715555-35.07768889-35.07768889-54.39715555-81.72657778-54.39715556-131.3336889s19.31946667-96.256 54.39715556-131.33368888c35.07768889-35.07768889 81.72657778-54.39715555 131.33368889-54.39715556s96.256 19.31946667 131.33368889 54.39715556S697.74222222 207.53066667 697.74222222 257.13777778s-19.31946667 96.256-54.39715555 131.33368889c-35.07768889 35.08906667-81.7152 54.40853333-131.33368889 54.40853333z m145.63555555 576.55751111c-8.73813333 0-17.47626667-3.33368889-24.13226666-10.00106666l-145.63555556-145.63555556c-13.33475555-13.33475555-13.33475555-34.94115555 0-48.27591111s34.94115555-13.33475555 48.27591111 0l121.50328889 121.50328889L961.19466667 633.49191111c13.32337778-13.33475555 34.94115555-13.33475555 48.27591111 0 13.33475555 13.33475555 13.33475555 34.94115555 0 48.27591111L681.7792 1009.43644445c-6.656 6.66737778-15.39413333 10.00106667-24.13226667 10.00106666z" fill="#153151" p-id="3204"></path></svg>