<?xml version="1.0" encoding="utf-8"?>
<!-- Generator: Adobe Illustrator 24.3.0, SVG Export Plug-In . SVG Version: 6.00 Build 0)  -->
<svg version="1.1" xmlns="http://www.w3.org/2000/svg" xmlns:xlink="http://www.w3.org/1999/xlink" x="0px" y="0px"
	 viewBox="0 0 40 40" style="enable-background:new 0 0 40 40;" xml:space="preserve">
<style type="text/css">
	.st0{display:none;}
	.st1{display:inline;fill:none;stroke:#153151;stroke-miterlimit:10;}
	.st2{display:inline;fill:none;stroke:#153151;stroke-linecap:round;stroke-miterlimit:10;}
	.st3{fill:none;stroke:#153151;stroke-miterlimit:10;}
	.st4{fill:none;stroke:#153151;stroke-linecap:round;stroke-miterlimit:10;}
	.st5{display:inline;fill:none;stroke:#153151;stroke-linejoin:round;stroke-miterlimit:10;}
	.st6{display:inline;}
	.st7{display:inline;fill:none;stroke:#153151;stroke-linecap:round;stroke-linejoin:round;stroke-miterlimit:10;}
	.st8{fill:none;stroke:#153151;stroke-linecap:round;stroke-linejoin:round;stroke-miterlimit:10;}
	.st9{display:inline;fill:#FFFFFF;}
	.st10{display:none;fill:none;stroke:#153151;stroke-linecap:round;stroke-linejoin:round;stroke-miterlimit:10;}
	.st11{display:none;fill:none;stroke:#153151;stroke-miterlimit:10;}
	.st12{display:none;fill:#FFFFFF;stroke:#153151;stroke-linecap:round;stroke-miterlimit:10;}
	.st13{display:inline;fill:#4C84FF;}
	.st14{display:inline;fill:none;stroke:#FFFFFF;stroke-width:4;stroke-linecap:round;stroke-linejoin:round;stroke-miterlimit:10;}
	.st15{display:inline;fill:#00E821;}
	.st16{display:inline;fill:#C5FFC9;}
	.st17{display:inline;fill:none;stroke:#00E821;stroke-width:4;stroke-linecap:round;stroke-linejoin:round;stroke-miterlimit:10;}
	.st18{display:inline;fill:#BBDAFF;}
	.st19{display:inline;fill:none;stroke:#4C84FF;stroke-width:4;stroke-linecap:round;stroke-linejoin:round;stroke-miterlimit:10;}
	.st20{display:inline;fill:#FCA100;}
	.st21{display:inline;fill:#FFE0B3;}
	.st22{display:inline;fill:none;stroke:#FCA100;stroke-width:4;stroke-linecap:round;stroke-linejoin:round;stroke-miterlimit:10;}
	.st23{display:inline;fill:#FF625B;}
	.st24{fill:none;stroke:#FFFFFF;stroke-width:4;stroke-linecap:round;stroke-linejoin:round;stroke-miterlimit:10;}
	.st25{display:inline;fill:#FFC2C2;}
	.st26{fill:none;stroke:#FF625B;stroke-width:4;stroke-linecap:round;stroke-linejoin:round;stroke-miterlimit:10;}
	.st27{display:inline;fill:none;stroke:#FFFFFF;stroke-width:2;stroke-linecap:round;stroke-linejoin:round;stroke-miterlimit:10;}
	.st28{display:inline;fill:#7D838C;}
</style>
<g id="MES机加">
	<g id="平台管理_1_" class="st0">
		<path class="st1" d="M-68.49-26.07h-35c-1.1,0-2-0.9-2-2v-22c0-1.1,0.9-2,2-2h35c1.1,0,2,0.9,2,2v22
			C-66.49-26.97-67.38-26.07-68.49-26.07z"/>
		<path id="平台管理" class="st1" d="M-76.61-39.76c-0.1-0.62-0.4-0.9-1.04-0.95c-0.3-0.02-0.61-0.02-0.91,0
			c-2.03,0.17-3.46-2.36-2.29-3.99c0.19-0.26,0.34-0.54,0.48-0.83c0.11-0.24,0.21-0.5,0.07-0.77c-0.43-0.78-1.16-1.15-1.98-1.3
			c-0.72-0.13-0.94,0.5-1.23,0.99c-0.15,0.24-0.28,0.5-0.45,0.72c-0.3,0.41-0.7,0.69-1.21,0.83c-1.41,0.38-2.48-0.11-3.23-1.48
			c-0.69-1.25-1.16-1.37-2.37-0.62c-0.14,0.08-0.27,0.17-0.4,0.27c-0.58,0.45-0.68,0.89-0.33,1.54c0.2,0.38,0.45,0.73,0.62,1.12
			c0.64,1.46-0.43,3.32-2.02,3.48c-0.46,0.05-0.92,0.02-1.39,0.04c-0.44,0.02-0.82,0.17-0.96,0.63c-0.21,0.66-0.21,1.34-0.01,2
			c0.11,0.37,0.39,0.59,0.79,0.62c0.25,0.01,0.5,0,0.75,0c0.87-0.02,1.67,0.11,2.28,0.81c0.91,1.04,0.99,2.06,0.25,3.33
			c-0.79,1.36-0.65,1.82,0.78,2.52c0.16,0.08,0.33,0.14,0.49,0.2c0.47,0.17,0.85,0.03,1.12-0.36c0.21-0.31,0.4-0.63,0.57-0.96
			c0.86-1.71,3.64-1.71,4.5-0.01c0.17,0.33,0.35,0.66,0.57,0.96c0.37,0.5,0.77,0.59,1.41,0.26c0.67-0.34,1.48-0.58,1.49-1.54
			c0-0.26-0.17-0.5-0.3-0.73c-0.17-0.29-0.36-0.58-0.5-0.88c-0.65-1.44,0.33-3.26,1.89-3.53c0.5-0.09,1-0.02,1.49-0.05
			c0.64-0.04,0.94-0.3,1.05-0.93C-76.54-38.84-76.54-39.31-76.61-39.76z M-85.95-36.02c-1.72,0.01-3.1-1.35-3.1-3.05
			c0-1.71,1.36-3.07,3.08-3.07c1.7,0,3.05,1.35,3.05,3.05C-82.91-37.4-84.27-36.02-85.95-36.02z"/>
		<path class="st2" d="M-77.69-21.93c-3.46,0-13.12,0-16.58,0"/>
	</g>
	<g id="应用管理" class="st0">
		<path class="st1" d="M-92.5-39.5h-9c-2.21,0-4-1.79-4-4v-13h13c2.21,0,4,1.79,4,4v9C-88.5-41.29-90.29-39.5-92.5-39.5z"/>
		<path class="st1" d="M-70.5-39.5h-9c-2.21,0-4-1.79-4-4v-9c0-2.21,1.79-4,4-4h13v13C-66.5-41.29-68.29-39.5-70.5-39.5z"/>
		<path id="管理_4_" class="st1" d="M-66.55-26.3c-0.1-0.59-0.38-0.85-0.98-0.9c-0.29-0.02-0.58-0.02-0.86,0
			c-1.93,0.16-3.3-2.25-2.18-3.8c0.18-0.25,0.32-0.52,0.45-0.79c0.11-0.23,0.2-0.48,0.06-0.73c-0.41-0.74-1.11-1.09-1.89-1.24
			c-0.68-0.13-0.9,0.47-1.17,0.94c-0.14,0.23-0.27,0.47-0.43,0.69c-0.29,0.39-0.67,0.66-1.15,0.79c-1.34,0.36-2.36-0.1-3.08-1.41
			c-0.65-1.19-1.1-1.3-2.26-0.59c-0.13,0.08-0.26,0.16-0.38,0.26c-0.55,0.43-0.65,0.85-0.32,1.46c0.19,0.36,0.43,0.7,0.59,1.07
			c0.61,1.39-0.41,3.16-1.92,3.31c-0.44,0.05-0.88,0.02-1.32,0.04c-0.42,0.02-0.78,0.16-0.92,0.6c-0.2,0.63-0.2,1.27-0.01,1.9
			c0.11,0.35,0.37,0.57,0.75,0.59c0.24,0.01,0.47,0,0.71,0c0.82-0.02,1.58,0.11,2.17,0.78c0.86,0.99,0.94,1.96,0.24,3.17
			c-0.76,1.29-0.62,1.73,0.74,2.4c0.15,0.07,0.31,0.14,0.47,0.19c0.44,0.16,0.81,0.03,1.07-0.35c0.2-0.29,0.38-0.6,0.54-0.92
			c0.82-1.63,3.46-1.63,4.28-0.01c0.16,0.32,0.34,0.63,0.54,0.92c0.35,0.48,0.73,0.56,1.35,0.25c0.63-0.32,1.4-0.55,1.42-1.47
			c0-0.25-0.16-0.48-0.29-0.7c-0.16-0.28-0.34-0.55-0.47-0.84c-0.62-1.37,0.32-3.1,1.8-3.36c0.47-0.08,0.95-0.02,1.42-0.05
			c0.61-0.04,0.9-0.28,1-0.88C-66.48-25.41-66.48-25.86-66.55-26.3z M-75.44-22.73c-1.63,0.01-2.95-1.28-2.95-2.91
			c0-1.63,1.3-2.92,2.93-2.92c1.61,0,2.9,1.29,2.9,2.9C-72.55-24.04-73.84-22.74-75.44-22.73z"/>
		<path class="st1" d="M-92.5-17.5h-13v-13c0-2.21,1.79-4,4-4h9c2.21,0,4,1.79,4,4v9C-88.5-19.29-90.29-17.5-92.5-17.5z"/>
	</g>
	<g id="菜单管理" class="st0">
		<path id="管理_1_" class="st1" d="M-69.41-28.54c-0.12-0.74-0.48-1.07-1.24-1.13c-0.36-0.03-0.72-0.03-1.08,0
			c-2.42,0.2-4.14-2.82-2.74-4.76c0.22-0.31,0.41-0.65,0.57-0.99c0.14-0.29,0.26-0.6,0.08-0.92c-0.52-0.93-1.39-1.37-2.37-1.55
			c-0.86-0.16-1.12,0.6-1.47,1.18c-0.17,0.29-0.34,0.59-0.54,0.87c-0.36,0.49-0.84,0.83-1.44,0.99c-1.68,0.45-2.96-0.13-3.86-1.77
			c-0.82-1.49-1.38-1.64-2.84-0.74c-0.16,0.1-0.32,0.2-0.48,0.32c-0.69,0.54-0.81,1.06-0.4,1.83c0.24,0.45,0.54,0.87,0.74,1.34
			c0.77,1.74-0.52,3.96-2.41,4.16c-0.55,0.06-1.1,0.02-1.66,0.05c-0.52,0.02-0.98,0.21-1.15,0.75c-0.25,0.79-0.25,1.6-0.01,2.39
			c0.14,0.44,0.46,0.71,0.94,0.74c0.3,0.02,0.59,0,0.89,0c1.03-0.02,1.99,0.13,2.72,0.97c1.08,1.24,1.18,2.46,0.3,3.98
			c-0.95,1.62-0.78,2.17,0.93,3.01c0.19,0.09,0.39,0.17,0.59,0.24c0.56,0.2,1.01,0.03,1.34-0.43c0.25-0.36,0.48-0.75,0.68-1.15
			c1.02-2.04,4.35-2.04,5.38-0.01c0.2,0.4,0.42,0.79,0.68,1.15c0.44,0.6,0.92,0.7,1.69,0.31c0.8-0.4,1.76-0.7,1.78-1.84
			c0-0.31-0.2-0.6-0.36-0.88c-0.2-0.35-0.43-0.69-0.59-1.06c-0.78-1.72,0.4-3.89,2.26-4.21c0.59-0.1,1.19-0.02,1.78-0.06
			c0.76-0.05,1.12-0.35,1.26-1.1C-69.32-27.44-69.32-28-69.41-28.54z M-80.56-24.07c-2.05,0.01-3.7-1.61-3.7-3.65
			c-0.01-2.04,1.63-3.67,3.68-3.66c2.03,0,3.64,1.62,3.64,3.64C-76.94-25.72-78.55-24.08-80.56-24.07z"/>
		<path class="st2" d="M-90.59-17.5h-8.15c-2.21,0-4-1.79-4-4V-52.5c0-2.21,1.79-4,4-4h21.57c2.21,0,4,1.79,4,4v11.05"/>
		<path class="st2" d="M-97.55-49.19c6.32,0,12.65,0,18.97,0"/>
		<path class="st2" d="M-97.55-42.83c6.32,0,12.65,0,18.97,0"/>
		<path class="st2" d="M-97.55-49.19c6.32,0,12.65,0,18.97,0"/>
	</g>
	<g id="字典管理_1_">
		<path id="管理_3_" class="st3" d="M-75.97-40.46c-0.11-0.67-0.43-0.96-1.11-1.02c-0.32-0.03-0.65-0.03-0.97,0
			c-2.17,0.18-3.71-2.53-2.45-4.27c0.2-0.28,0.36-0.58,0.51-0.89c0.12-0.26,0.23-0.54,0.07-0.82c-0.46-0.83-1.24-1.23-2.12-1.39
			c-0.77-0.14-1.01,0.53-1.32,1.05c-0.16,0.26-0.3,0.53-0.48,0.78c-0.32,0.44-0.75,0.74-1.29,0.89c-1.51,0.4-2.65-0.12-3.46-1.59
			c-0.73-1.33-1.24-1.47-2.54-0.67c-0.15,0.09-0.29,0.18-0.43,0.29c-0.62,0.48-0.73,0.95-0.35,1.64c0.22,0.4,0.48,0.78,0.66,1.2
			c0.69,1.56-0.46,3.55-2.16,3.73c-0.49,0.05-0.99,0.02-1.48,0.04c-0.47,0.02-0.87,0.18-1.03,0.67c-0.23,0.71-0.23,1.43-0.01,2.14
			c0.12,0.4,0.42,0.64,0.84,0.66c0.27,0.02,0.53,0,0.8,0c0.93-0.02,1.78,0.12,2.44,0.87c0.97,1.11,1.06,2.21,0.26,3.57
			c-0.85,1.45-0.7,1.94,0.83,2.7c0.17,0.08,0.35,0.15,0.53,0.22c0.5,0.18,0.91,0.03,1.2-0.39c0.23-0.33,0.43-0.67,0.61-1.03
			c0.92-1.83,3.9-1.83,4.82-0.01c0.18,0.36,0.38,0.71,0.61,1.03c0.39,0.54,0.82,0.63,1.51,0.28c0.71-0.36,1.58-0.62,1.6-1.65
			c0-0.28-0.18-0.54-0.32-0.79c-0.18-0.31-0.38-0.62-0.53-0.95c-0.7-1.54,0.36-3.49,2.03-3.78c0.53-0.09,1.07-0.02,1.6-0.06
			c0.68-0.05,1.01-0.32,1.13-0.99C-75.89-39.47-75.89-39.97-75.97-40.46z M-85.96-36.45c-1.84,0.01-3.31-1.45-3.32-3.27
			c0-1.83,1.46-3.29,3.3-3.28c1.82,0,3.26,1.45,3.27,3.26C-82.71-37.93-84.16-36.46-85.96-36.45z"/>
		<path class="st4" d="M-70.32-17.5h-26.64c-2.61,0-4.72-2.11-4.72-4.72v-10.12"/>
		<path class="st3" d="M-74.32-22.94h-23.36c-2.21,0-4-1.79-4-4V-52.5c0-2.21,1.79-4,4-4h23.36c2.21,0,4,1.79,4,4v25.55
			C-70.32-24.73-72.11-22.94-74.32-22.94z"/>
	</g>
	<g id="任务管理" class="st0">
		<path class="st5" d="M-71.53-50.1c-0.47-0.47-1.11-0.73-1.78-0.73h-2.52v0.63c0,0.5-0.2,0.98-0.55,1.33
			c-0.35,0.35-0.83,0.55-1.33,0.55h-16.66c-1.04,0-1.88-0.84-1.89-1.88v-0.63h-2.52c-0.67,0-1.31,0.26-1.78,0.73
			c-0.47,0.47-0.74,1.11-0.74,1.77V-20c0,0.66,0.27,1.3,0.74,1.77c0.47,0.47,1.11,0.73,1.78,0.73h25.47c0.67,0,1.31-0.26,1.78-0.73
			c0.47-0.47,0.74-1.11,0.74-1.77v-28.33C-70.79-49-71.06-49.63-71.53-50.1z"/>
		<path id="管理_5_" class="st5" d="M-74.51-33.92c-0.12-0.77-0.5-1.1-1.27-1.17c-0.37-0.03-0.75-0.03-1.12,0
			c-2.49,0.21-4.26-2.91-2.82-4.91c0.23-0.32,0.42-0.67,0.59-1.02c0.14-0.29,0.26-0.62,0.08-0.94c-0.53-0.96-1.43-1.41-2.44-1.6
			c-0.88-0.16-1.16,0.61-1.51,1.21c-0.18,0.3-0.35,0.61-0.56,0.89c-0.37,0.51-0.86,0.85-1.49,1.02c-1.73,0.46-3.05-0.13-3.98-1.82
			c-0.84-1.53-1.42-1.69-2.92-0.77c-0.17,0.1-0.33,0.21-0.49,0.33c-0.72,0.55-0.83,1.09-0.41,1.89c0.25,0.46,0.55,0.9,0.76,1.38
			c0.79,1.8-0.53,4.08-2.48,4.29c-0.56,0.06-1.14,0.02-1.71,0.05c-0.54,0.02-1.01,0.21-1.18,0.77c-0.26,0.81-0.26,1.64-0.01,2.46
			c0.14,0.45,0.48,0.73,0.97,0.76c0.31,0.02,0.61,0,0.92,0c1.07-0.02,2.05,0.14,2.81,1c1.12,1.28,1.22,2.54,0.3,4.1
			c-0.98,1.67-0.8,2.23,0.96,3.1c0.2,0.1,0.4,0.18,0.6,0.25c0.57,0.21,1.04,0.04,1.38-0.45c0.26-0.38,0.5-0.78,0.7-1.19
			c1.05-2.1,4.48-2.1,5.54-0.01c0.21,0.41,0.43,0.82,0.7,1.18c0.45,0.62,0.94,0.73,1.74,0.32c0.82-0.41,1.82-0.72,1.83-1.9
			c0-0.32-0.2-0.62-0.37-0.9c-0.21-0.36-0.44-0.71-0.61-1.09c-0.8-1.77,0.41-4.01,2.33-4.34c0.61-0.11,1.23-0.02,1.84-0.06
			c0.78-0.05,1.16-0.37,1.29-1.14C-74.42-32.78-74.42-33.36-74.51-33.92z M-86-29.31c-2.11,0.01-3.81-1.66-3.81-3.76
			c-0.01-2.1,1.68-3.78,3.79-3.77c2.09,0,3.75,1.67,3.76,3.75C-82.26-31.01-83.93-29.32-86-29.31z"/>
		<path class="st5" d="M-88.8-54.25c0.27-1.31,1.42-2.25,2.76-2.25c1.34,0,2.5,0.95,2.76,2.26h3.35c0.94,0,1.7,0.76,1.7,1.7
			c0,0.94-0.76,1.7-1.7,1.7h-12.23c-0.94,0-1.7-0.76-1.7-1.7c0-0.94,0.76-1.7,1.7-1.7L-88.8-54.25L-88.8-54.25z"/>
	</g>
	<g id="数据库管理" class="st0">
		
			<ellipse transform="matrix(0.7071 -0.7071 0.7071 0.7071 0.9618 -71.678)" class="st1" cx="-86.04" cy="-37" rx="11.11" ry="25.18"/>
		
			<ellipse transform="matrix(0.7071 -0.7071 0.7071 0.7071 0.9618 -71.678)" class="st1" cx="-86.04" cy="-37" rx="25.18" ry="11.11"/>
		<path id="管理_6_" class="st1" d="M-77.1-37.66c-0.1-0.6-0.39-0.86-0.99-0.91c-0.29-0.02-0.58-0.02-0.87,0
			c-1.94,0.16-3.31-2.26-2.19-3.81c0.18-0.25,0.32-0.52,0.46-0.8c0.11-0.23,0.2-0.48,0.06-0.73c-0.41-0.74-1.11-1.1-1.89-1.24
			c-0.68-0.13-0.9,0.48-1.17,0.94c-0.14,0.23-0.27,0.47-0.43,0.69c-0.29,0.4-0.67,0.66-1.15,0.79c-1.34,0.36-2.37-0.1-3.09-1.41
			c-0.65-1.19-1.1-1.31-2.27-0.59c-0.13,0.08-0.26,0.16-0.38,0.26c-0.56,0.43-0.65,0.85-0.32,1.47c0.19,0.36,0.43,0.7,0.59,1.07
			c0.61,1.39-0.41,3.17-1.92,3.33c-0.44,0.05-0.88,0.02-1.32,0.04c-0.42,0.02-0.78,0.16-0.92,0.6c-0.2,0.63-0.2,1.28-0.01,1.91
			c0.11,0.35,0.37,0.57,0.75,0.59c0.24,0.01,0.48,0,0.71,0c0.83-0.02,1.59,0.11,2.18,0.78c0.87,0.99,0.95,1.97,0.24,3.18
			c-0.76,1.3-0.62,1.73,0.74,2.4c0.15,0.07,0.31,0.14,0.47,0.19c0.45,0.16,0.81,0.03,1.07-0.35c0.2-0.29,0.39-0.6,0.55-0.92
			c0.82-1.63,3.47-1.63,4.3-0.01c0.16,0.32,0.34,0.63,0.55,0.92c0.35,0.48,0.73,0.56,1.35,0.25c0.64-0.32,1.41-0.56,1.42-1.47
			c0-0.25-0.16-0.48-0.29-0.7c-0.16-0.28-0.34-0.55-0.47-0.84c-0.62-1.37,0.32-3.11,1.81-3.37c0.48-0.08,0.95-0.02,1.42-0.05
			c0.61-0.04,0.9-0.28,1-0.88C-77.02-36.78-77.03-37.22-77.1-37.66z M-86.01-34.08c-1.64,0.01-2.95-1.29-2.96-2.91
			c0-1.63,1.3-2.93,2.94-2.93c1.62,0,2.91,1.29,2.91,2.91C-83.11-35.4-84.4-34.09-86.01-34.08z"/>
	</g>
	<g id="系统配置" class="st0">
		<path class="st2" d="M-68.49-26.07h-35c-1.1,0-2-0.9-2-2v-22c0-1.1,0.9-2,2-2h35c1.1,0,2,0.9,2,2v22
			C-66.49-26.97-67.38-26.07-68.49-26.07z"/>
		<path class="st2" d="M-77.69-21.93c-3.46,0-13.12,0-16.58,0"/>
		<g class="st6">
			<circle class="st4" cx="-96.22" cy="-37.59" r="1.97"/>
			<path class="st4" d="M-96.22-29.78c0-1.88,0-3.96,0-5.84"/>
			<path class="st4" d="M-96.22-39.56c0-1.88,0-6.92,0-8.81"/>
		</g>
		<g class="st6">
			<circle class="st4" cx="-85.99" cy="-43.04" r="1.97"/>
			<path class="st4" d="M-85.99-29.78c0-1.88,0-9.4,0-11.29"/>
			<path class="st4" d="M-85.99-45.01c0-1.88,0-1.48,0-3.36"/>
		</g>
		<g class="st6">
			<circle class="st4" cx="-75.75" cy="-34.62" r="1.97"/>
			<path class="st4" d="M-75.75-29.78c0-1.88,0-0.99,0-2.87"/>
			<path class="st4" d="M-75.75-36.59c0-1.88,0-9.89,0-11.78"/>
		</g>
	</g>
	<g id="邮件发送" class="st0">
		<path class="st7" d="M-66.49-34v-15.83c0-1.1-0.9-2-2-2h-35c-1.1,0-2,0.9-2,2v25.67c0,1.1,0.9,2,2,2h36.94l-7.49-7.49"/>
		<polyline class="st7" points="-104.76,-51.37 -86.54,-37 -67.22,-51.37 		"/>
	</g>
	<g id="接口文档" class="st0">
		<path class="st7" d="M-80.44-17.5h-17.27c-2.21,0-4-1.79-4-4v-31c0-2.21,1.79-4,4-4h23.33c2.21,0,4,1.79,4,4v24.94L-80.44-17.5z"
			/>
		<g class="st6">
			<path class="st8" d="M-92.44-40.52c0,0-3.03,3.12-3.9,3.99c-3.69,3.69,3.29,10.6,7.02,6.86c3.5-3.5,6.21-6.21,6.21-6.21
				s2.01-2.01-1.17-6.05"/>
			<path class="st8" d="M-79.65-39.28c0,0,3.03-3.12,3.9-3.99c3.69-3.69-3.29-10.6-7.02-6.86c-3.5,3.5-6.21,6.21-6.21,6.21
				s-2.01,2.01,1.17,6.05"/>
		</g>
		<path class="st7" d="M-80.44-17.5v-6.16c0-2.24,1.82-4.06,4.06-4.06h6"/>
	</g>
	<g id="服务监控" class="st0">
		<path class="st7" d="M-68.49-26.07h-35c-1.1,0-2-0.9-2-2v-22c0-1.1,0.9-2,2-2h35c1.1,0,2,0.9,2,2v22
			C-66.49-26.97-67.38-26.07-68.49-26.07z"/>
		<path class="st7" d="M-77.69-21.93c-3.46,0-13.12,0-16.58,0"/>
		<polyline class="st7" points="-97.84,-33.48 -89.3,-42.02 -83.04,-35.76 -74.13,-44.66 		"/>
	</g>
	<g id="在线用户" class="st0">
		<circle class="st7" cx="-86.04" cy="-47.01" r="9.49"/>
		<path class="st7" d="M-105.54-17.5c0-10.77,8.73-19.5,19.5-19.5c3.45,0,6.68,0.89,9.49,2.46"/>
		<polyline class="st7" points="-87.32,-24.61 -81.49,-17.5 -66.54,-31.39 		"/>
	</g>
	<g id="代码生成" class="st0">
		<path class="st7" d="M-68.49-26.07h-35c-1.1,0-2-0.9-2-2v-22c0-1.1,0.9-2,2-2h35c1.1,0,2,0.9,2,2v22
			C-66.49-26.97-67.38-26.07-68.49-26.07z"/>
		<path class="st7" d="M-77.69-21.93c-3.46,0-13.12,0-16.58,0"/>
		<polyline class="st7" points="-93.28,-33.9 -98.46,-39.07 -93.28,-44.25 		"/>
		<polyline class="st7" points="-78.19,-33.9 -73.01,-39.07 -78.19,-44.25 		"/>
		<line class="st7" x1="-90.74" y1="-32.61" x2="-80.72" y2="-45.54"/>
	</g>
	<g id="表单设计" class="st0">
		<path class="st7" d="M-98.9-51.77v34.26l15.79-6.26l15.5,6.26V-52.5c0-2.21-1.79-4-4-4h-28.86c-2.21,0-4,1.79-4,4v7.52h5.57"/>
		<path class="st2" d="M-92.74-45.78c6.32,0,12.65,0,18.97,0"/>
		<path class="st2" d="M-92.74-39.43c0.45,0,18.1,0,18.97,0"/>
		<path class="st2" d="M-92.74-33.07c0.45,0,18.1,0,18.97,0"/>
	</g>
	<g id="运营管理" class="st0">
		<path class="st2" d="M-79.87-47.15c0.1-0.44,0.15-0.89,0.15-1.36c0-3.47-2.81-6.28-6.28-6.28c-3.47,0-6.28,2.81-6.28,6.28
			c0,0.47,0.05,0.92,0.15,1.36"/>
		<path class="st2" d="M-100.63-33.7c-2.8,0.63-4.89,3.13-4.89,6.12c0,3.47,2.81,6.28,6.28,6.28c1.45,0,2.79-0.5,3.85-1.33"/>
		<path class="st2" d="M-72.32-39.1c-1.37-3.57-4.1-6.46-7.55-8.05c-0.62,2.81-3.12,4.92-6.12,4.92c-3,0-5.5-2.11-6.12-4.92
			c-5.02,2.32-8.52,7.39-8.52,13.29c0,0.05,0.01,0.1,0.01,0.16c0.45-0.1,0.91-0.16,1.38-0.16c3.47,0,6.28,2.81,6.28,6.28
			c0,2.01-0.95,3.8-2.42,4.95c2.54,2.13,5.82,3.42,9.4,3.42c1.34,0,2.63-0.18,3.87-0.52"/>
		<path id="管理_2_" class="st1" d="M-66.6-29.49c-0.1-0.6-0.39-0.86-0.99-0.91c-0.29-0.02-0.58-0.02-0.87,0
			c-1.94,0.16-3.31-2.26-2.19-3.81c0.18-0.25,0.32-0.52,0.46-0.8c0.11-0.23,0.2-0.48,0.06-0.73c-0.41-0.74-1.11-1.1-1.89-1.24
			c-0.68-0.13-0.9,0.48-1.17,0.94c-0.14,0.23-0.27,0.47-0.43,0.69c-0.29,0.4-0.67,0.66-1.15,0.79c-1.34,0.36-2.37-0.1-3.09-1.41
			c-0.65-1.19-1.1-1.31-2.27-0.59c-0.13,0.08-0.26,0.16-0.38,0.26c-0.56,0.43-0.65,0.85-0.32,1.47c0.19,0.36,0.43,0.7,0.59,1.07
			c0.61,1.39-0.41,3.17-1.92,3.33c-0.44,0.05-0.88,0.02-1.32,0.04c-0.42,0.02-0.78,0.16-0.92,0.6c-0.2,0.63-0.2,1.28-0.01,1.91
			c0.11,0.35,0.37,0.57,0.75,0.59c0.24,0.01,0.48,0,0.71,0c0.83-0.02,1.59,0.11,2.18,0.78c0.87,0.99,0.95,1.97,0.24,3.18
			c-0.76,1.3-0.62,1.73,0.74,2.4c0.15,0.07,0.31,0.14,0.47,0.19c0.45,0.16,0.81,0.03,1.07-0.35c0.2-0.29,0.39-0.6,0.55-0.92
			c0.82-1.63,3.47-1.63,4.3-0.01c0.16,0.32,0.34,0.63,0.55,0.92c0.35,0.48,0.73,0.56,1.35,0.25c0.64-0.32,1.41-0.56,1.42-1.47
			c0-0.25-0.16-0.48-0.29-0.7c-0.16-0.28-0.34-0.55-0.47-0.84c-0.62-1.37,0.32-3.11,1.81-3.37c0.48-0.08,0.95-0.02,1.42-0.05
			c0.61-0.04,0.9-0.28,1-0.88C-66.52-28.61-66.52-29.06-66.6-29.49z M-75.51-25.92c-1.64,0.01-2.95-1.29-2.96-2.91
			c0-1.63,1.3-2.93,2.94-2.93c1.62,0,2.91,1.29,2.91,2.91C-72.61-27.23-73.9-25.92-75.51-25.92z"/>
	</g>
	<g id="系统管理" class="st0">
		<circle class="st7" cx="-86.04" cy="-48.85" r="7.64"/>
		<circle class="st7" cx="-97.4" cy="-25.64" r="8.14"/>
		<line class="st7" x1="-86.04" y1="-37.04" x2="-86.04" y2="-41.21"/>
		<polyline class="st7" points="-97.38,-34.1 -97.38,-37.04 -74.71,-37.04 -74.71,-33.78 		"/>
		<path id="管理_7_" class="st1" d="M-66.59-25.92c-0.09-0.57-0.37-0.82-0.94-0.86c-0.27-0.02-0.55-0.02-0.83,0
			c-1.85,0.15-3.15-2.15-2.09-3.63c0.17-0.24,0.31-0.5,0.43-0.76c0.1-0.22,0.2-0.46,0.06-0.7c-0.39-0.71-1.06-1.05-1.8-1.18
			c-0.65-0.12-0.86,0.45-1.12,0.9c-0.13,0.22-0.26,0.45-0.41,0.66c-0.28,0.38-0.64,0.63-1.1,0.76c-1.28,0.34-2.26-0.1-2.94-1.35
			c-0.62-1.13-1.05-1.25-2.16-0.57c-0.12,0.08-0.25,0.16-0.36,0.25c-0.53,0.41-0.62,0.81-0.3,1.4c0.18,0.34,0.41,0.67,0.56,1.02
			c0.58,1.33-0.39,3.02-1.84,3.17c-0.42,0.04-0.84,0.02-1.26,0.04c-0.4,0.02-0.74,0.16-0.88,0.57c-0.19,0.6-0.19,1.22-0.01,1.82
			c0.1,0.34,0.35,0.54,0.72,0.56c0.23,0.01,0.45,0,0.68,0c0.79-0.02,1.52,0.1,2.08,0.74c0.83,0.95,0.9,1.88,0.23,3.03
			c-0.72,1.24-0.6,1.65,0.71,2.29c0.14,0.07,0.3,0.13,0.45,0.19c0.42,0.15,0.77,0.03,1.02-0.33c0.19-0.28,0.37-0.57,0.52-0.88
			c0.78-1.56,3.31-1.56,4.1-0.01c0.15,0.3,0.32,0.6,0.52,0.88c0.34,0.46,0.7,0.54,1.29,0.24c0.61-0.31,1.34-0.53,1.36-1.4
			c0-0.24-0.15-0.46-0.27-0.67c-0.16-0.27-0.33-0.53-0.45-0.8c-0.59-1.31,0.3-2.97,1.72-3.21c0.45-0.08,0.91-0.02,1.36-0.05
			c0.58-0.04,0.86-0.27,0.96-0.84C-66.52-25.08-66.53-25.5-66.59-25.92z M-75.09-22.51c-1.56,0.01-2.82-1.23-2.82-2.78
			c0-1.56,1.24-2.8,2.8-2.79c1.54,0,2.77,1.23,2.78,2.78C-72.33-23.77-73.56-22.52-75.09-22.51z"/>
	</g>
	<g id="业务应用" class="st0">
		<path class="st1" d="M-92.54-39.5h-9c-2.21,0-4-1.79-4-4v-13h13c2.21,0,4,1.79,4,4v9C-88.54-41.29-90.33-39.5-92.54-39.5z"/>
		<path class="st1" d="M-70.54-39.5h-9c-2.21,0-4-1.79-4-4v-9c0-2.21,1.79-4,4-4h13v13C-66.54-41.29-68.33-39.5-70.54-39.5z"/>
		<path class="st1" d="M-92.54-17.5h-13v-13c0-2.21,1.79-4,4-4h9c2.21,0,4,1.79,4,4v9C-88.54-19.29-90.33-17.5-92.54-17.5z"/>
		<path class="st7" d="M-83.54-17.5v-17l8.81,12.73l8.19-12.73v17"/>
	</g>
	<g class="st0">
		<path class="st9" d="M-105.24-66.18h0.65l1.21,3.39l0.46,1.29h0.03c0.15-0.43,0.29-0.86,0.44-1.29l1.21-3.39h0.65v5.89h-0.46
			v-3.73c0-0.48,0.03-1.13,0.06-1.62h-0.03l-0.46,1.32l-1.24,3.41h-0.39l-1.24-3.41l-0.46-1.32h-0.03c0.02,0.49,0.06,1.14,0.06,1.62
			v3.73h-0.44V-66.18z"/>
		<path class="st9" d="M-98.88-66.18h3.26v0.41h-2.77v2.15h2.34v0.41h-2.34v2.5h2.86v0.42h-3.35V-66.18z"/>
		<path class="st9" d="M-94.69-61.06l0.3-0.34c0.43,0.48,1.03,0.78,1.71,0.78c0.87,0,1.41-0.46,1.41-1.13c0-0.71-0.46-0.94-1.04-1.2
			l-0.88-0.39c-0.53-0.23-1.2-0.61-1.2-1.47c0-0.87,0.74-1.48,1.75-1.48c0.71,0,1.29,0.31,1.66,0.71l-0.27,0.32
			c-0.35-0.36-0.81-0.59-1.39-0.59c-0.75,0-1.25,0.4-1.25,1c0,0.67,0.57,0.92,1,1.11l0.88,0.39c0.67,0.3,1.24,0.67,1.24,1.57
			c0,0.91-0.75,1.6-1.91,1.6C-93.54-60.18-94.22-60.54-94.69-61.06z"/>
		<path class="st9" d="M-87.17-62.74c-0.17-0.31-0.64-1-0.97-1.47v4.51h-0.38v-4.42c-0.34,1.04-0.83,2.12-1.32,2.72
			c-0.06-0.11-0.16-0.25-0.24-0.33c0.57-0.72,1.2-2.11,1.49-3.31h-1.37v-0.38h1.43v-1.59h0.38v1.59h1.25v0.38h-1.25v0.3
			c0.27,0.33,1.07,1.39,1.24,1.64L-87.17-62.74z M-83.36-60.14c0.07,0,0.15-0.02,0.19-0.06c0.05-0.05,0.07-0.13,0.09-0.32
			c0.02-0.2,0.03-0.64,0.03-1.22c0.09,0.09,0.22,0.15,0.33,0.19c-0.01,0.47-0.02,1.08-0.06,1.26c-0.03,0.23-0.1,0.34-0.19,0.42
			c-0.1,0.06-0.22,0.1-0.37,0.1h-0.36c-0.13,0-0.28-0.04-0.4-0.12c-0.11-0.09-0.15-0.21-0.15-0.91v-5.38h-1.74v2.2
			c0,1.33-0.16,3.1-1.31,4.31c-0.06-0.07-0.2-0.21-0.3-0.27c1.11-1.15,1.22-2.77,1.22-4.04v-2.57h2.51v5.85
			c0,0.3,0.02,0.48,0.06,0.52c0.06,0.03,0.11,0.05,0.17,0.05H-83.36z"/>
		<path class="st9" d="M-78.42-65.28c-0.17,3.6-0.31,4.76-0.61,5.12c-0.14,0.18-0.28,0.23-0.49,0.24c-0.19,0.02-0.53,0.01-0.86-0.01
			c-0.01-0.13-0.05-0.29-0.11-0.4c0.37,0.02,0.7,0.03,0.85,0.03c0.13,0,0.21-0.02,0.28-0.11c0.24-0.27,0.41-1.47,0.56-4.74h-1.34
			c-0.1,2.02-0.4,4.15-1.44,5.38c-0.07-0.07-0.22-0.19-0.32-0.23c1.01-1.14,1.29-3.2,1.38-5.15h-1.23v-0.38h1.24
			c0.02-0.52,0.02-1.02,0.02-1.49h0.39c0,0.48-0.01,0.97-0.02,1.49h1.72V-65.28z M-75.04-65.96v6.11h-0.4v-0.55h-1.87v0.6h-0.38
			v-6.16H-75.04z M-75.43-60.78v-4.8h-1.87v4.8H-75.43z"/>
	</g>
</g>
<g id="常用">
	<polyline id="向左" class="st10" points="29.78,39.5 10.29,20 29.78,0.5 	"/>
	<polyline id="向上" class="st10" points="0.54,30.16 20.04,10.66 39.53,30.16 	"/>
	<polyline id="向下" class="st10" points="39.53,10.66 20.04,30.16 0.54,10.66 	"/>
	<polyline id="向右" class="st10" points="10.29,39.5 29.78,20.01 10.29,0.51 	"/>
	<g id="返回" class="st0">
		<path class="st7" d="M0.94,10.18h24.34c8.1,0,14.36,6.56,14.36,14.66S33.37,39.5,25.28,39.5H0.64"/>
		<polyline id="向左_1_" class="st7" points="10.35,19.94 0.64,10.23 10.35,0.51 		"/>
	</g>
	<g id="放大" class="st0">
		<g class="st6">
			<polyline class="st8" points="0.54,11.92 0.54,0.5 11.96,0.5 			"/>
			<line class="st8" x1="0.54" y1="0.5" x2="14.26" y2="14.22"/>
		</g>
		<g class="st6">
			<polyline class="st8" points="39.54,11.92 39.54,0.5 28.12,0.5 			"/>
			<line class="st8" x1="39.54" y1="0.5" x2="25.82" y2="14.22"/>
		</g>
		<g class="st6">
			<polyline class="st8" points="0.54,28.07 0.54,39.49 11.96,39.49 			"/>
			<line class="st8" x1="0.54" y1="39.49" x2="14.26" y2="25.77"/>
		</g>
		<g class="st6">
			<polyline class="st8" points="39.54,28.07 39.54,39.49 28.12,39.49 			"/>
			<line class="st8" x1="39.54" y1="39.49" x2="25.82" y2="25.77"/>
		</g>
	</g>
	<g id="缩小" class="st0">
		<g class="st6">
			<polyline class="st8" points="14.26,2.8 14.26,14.22 2.84,14.22 			"/>
			<line class="st8" x1="14.26" y1="14.22" x2="0.54" y2="0.51"/>
		</g>
		<g class="st6">
			<polyline class="st8" points="25.82,2.8 25.82,14.22 37.24,14.22 			"/>
			<line class="st8" x1="25.82" y1="14.22" x2="39.54" y2="0.51"/>
		</g>
		<g class="st6">
			<polyline class="st8" points="14.26,37.2 14.26,25.78 2.84,25.78 			"/>
			<line class="st8" x1="14.26" y1="25.78" x2="0.54" y2="39.5"/>
		</g>
		<g class="st6">
			<polyline class="st8" points="25.82,37.2 25.82,25.78 37.24,25.78 			"/>
			<line class="st8" x1="25.82" y1="25.78" x2="39.54" y2="39.5"/>
		</g>
	</g>
	<g id="缩进" class="st0">
		<line class="st7" x1="0.54" y1="0.49" x2="39.53" y2="0.49"/>
		<line class="st7" x1="0.54" y1="39.49" x2="39.53" y2="39.49"/>
		<line class="st7" x1="20.03" y1="26.49" x2="39.53" y2="26.49"/>
		<line class="st7" x1="20.03" y1="13.49" x2="39.53" y2="13.49"/>
		<polyline class="st7" points="9.79,9.27 0.54,18.53 9.79,27.79 		"/>
	</g>
	<g id="弹出" class="st0">
		<line class="st7" x1="0.54" y1="0.49" x2="39.53" y2="0.49"/>
		<line class="st7" x1="0.54" y1="39.49" x2="39.53" y2="39.49"/>
		<line class="st7" x1="20.03" y1="26.49" x2="0.54" y2="26.49"/>
		<line class="st7" x1="20.03" y1="13.49" x2="0.54" y2="13.49"/>
		<polyline class="st7" points="30.28,9.27 39.53,18.53 30.28,27.79 		"/>
	</g>
	<g id="头像" class="st0">
		<circle class="st7" cx="20.04" cy="19.91" r="19.5"/>
		<circle class="st7" cx="20.04" cy="15.38" r="6.95"/>
		<path class="st7" d="M36.22,30.79c-3.56-5.11-9.48-8.47-16.18-8.47c-6.71,0-12.62,3.35-16.18,8.47"/>
	</g>
	<g id="关闭" class="st0">
		<line class="st7" x1="0.54" y1="0.51" x2="39.53" y2="39.49"/>
		<line class="st7" x1="39.53" y1="0.51" x2="0.54" y2="39.49"/>
	</g>
	<g id="错误" class="st0">
		<line class="st7" x1="10.9" y1="10.78" x2="29.16" y2="29.04"/>
		<line class="st7" x1="29.16" y1="10.78" x2="10.9" y2="29.04"/>
		<circle class="st7" cx="20.03" cy="19.91" r="19.5"/>
	</g>
	<g id="正确" class="st0">
		<circle class="st7" cx="20.03" cy="20" r="19.5"/>
		<polyline class="st7" points="7.37,19.5 16.15,28.28 32.7,11.72 		"/>
	</g>
	<g id="导入" class="st0">
		<path class="st7" d="M39.54,26.01v9.48c0,2.21-1.79,4-4,4h-31c-2.21,0-4-1.79-4-4v-31c0-2.21,1.79-4,4-4h9.48"/>
		<polyline class="st7" points="16.07,8.27 16.07,23.96 31.76,23.96 		"/>
		<line class="st7" x1="39.53" y1="0.5" x2="16.07" y2="23.96"/>
	</g>
	<g id="导出" class="st0">
		<path class="st7" d="M39.54,26.01v9.48c0,2.21-1.79,4-4,4h-31c-2.21,0-4-1.79-4-4v-31c0-2.21,1.79-4,4-4h9.48"/>
		<polyline class="st7" points="39.53,16.19 39.53,0.5 23.84,0.5 		"/>
		<line class="st7" x1="16.07" y1="23.96" x2="39.53" y2="0.5"/>
	</g>
	<g id="添加" class="st0">
		<line class="st7" x1="20.03" y1="8.95" x2="20.03" y2="30.87"/>
		<line class="st7" x1="30.99" y1="19.91" x2="9.07" y2="19.91"/>
		<circle class="st7" cx="20.03" cy="19.91" r="19.5"/>
	</g>
	<g id="去除" class="st0">
		<line class="st7" x1="30.99" y1="19.91" x2="9.07" y2="19.91"/>
		<circle class="st7" cx="20.03" cy="19.91" r="19.5"/>
	</g>
	<g id="删除" class="st0">
		<line class="st7" x1="1.74" y1="8.27" x2="37.91" y2="8.27"/>
		<path class="st7" d="M7.41,13.23v22.26c0,2.21,1.79,4,4,4h16.84c2.21,0,4-1.79,4-4V13.23"/>
		<path class="st7" d="M11.49,8.27V4.45c0-2.19,1.43-3.96,3.19-3.96h10.29c1.76,0,3.19,1.77,3.19,3.96v3.82"/>
		<line class="st7" x1="2.64" y1="8.27" x2="37.01" y2="8.27"/>
		<line class="st7" x1="15.66" y1="17.84" x2="15.66" y2="32.84"/>
		<line class="st7" x1="24" y1="17.84" x2="24" y2="32.84"/>
	</g>
	<g id="查找" class="st0">
		<circle class="st7" cx="18.19" cy="18.22" r="17.72"/>
		<path class="st7" d="M30.72,30.75l8.74,8.74L30.72,30.75z"/>
	</g>
	<g id="放大镜-大" class="st0">
		<circle class="st7" cx="18.26" cy="18.22" r="17.72"/>
		<path class="st7" d="M30.79,30.75l8.74,8.74L30.79,30.75z"/>
		<line class="st7" x1="7" y1="18.22" x2="29.52" y2="18.22"/>
		<line class="st7" x1="18.26" y1="6.96" x2="18.26" y2="29.48"/>
	</g>
	<g id="放大镜-小" class="st0">
		<circle class="st7" cx="18.26" cy="18.22" r="17.72"/>
		<path class="st7" d="M30.79,30.75l8.74,8.74L30.79,30.75z"/>
		<line class="st7" x1="7" y1="18.22" x2="29.52" y2="18.22"/>
	</g>
	<g id="更多">
		<circle class="st8" cx="3.93" cy="20.41" r="3.39"/>
		<circle class="st8" cx="20.04" cy="20.41" r="3.39"/>
		<circle class="st8" cx="36.15" cy="20.41" r="3.39"/>
	</g>
	<g id="编辑_x2F_修改" class="st0">
		<line class="st7" x1="0.54" y1="39.5" x2="39.54" y2="39.5"/>
		<g class="st6">
			<polygon class="st8" points="10.33,32.93 2.66,35.67 3.94,27.62 26.45,0.5 32.85,5.81 			"/>
			<line class="st8" x1="21.46" y1="6.51" x2="27.86" y2="11.82"/>
		</g>
	</g>
	<g id="扫描" class="st0">
		<path class="st7" d="M0.54,11.92V4.5c0-2.21,1.79-4,4-4h7.42"/>
		<path class="st7" d="M39.54,11.92V4.5c0-2.21-1.79-4-4-4h-7.42"/>
		<path class="st7" d="M0.54,28.07v7.42c0,2.21,1.79,4,4,4h7.42"/>
		<path class="st7" d="M39.54,28.07v7.42c0,2.21-1.79,4-4,4h-7.42"/>
		<line class="st7" x1="0.54" y1="19.99" x2="39.54" y2="19.99"/>
	</g>
	<g id="复制" class="st0">
		<path class="st7" d="M29.17,39.49H4.54c-2.21,0-4-1.79-4-4V10.86c0-2.21,1.79-4,4-4h24.63c2.21,0,4,1.79,4,4v24.63
			C33.17,37.7,31.38,39.49,29.17,39.49z"/>
		<path class="st7" d="M8.47,6.86V4.49c0-2.21,1.79-4,4-4h23.07c2.21,0,4,1.79,4,4v23.07c0,2.21-1.79,4-4,4h-2.37"/>
	</g>
	<g id="粘贴" class="st0">
		<path class="st7" d="M29.17,39.49H4.54c-2.21,0-4-1.79-4-4V10.86c0-2.21,1.79-4,4-4h24.63c2.21,0,4,1.79,4,4v24.63
			C33.17,37.7,31.38,39.49,29.17,39.49z"/>
		<path class="st7" d="M8.47,6.86V4.49c0-2.21,1.79-4,4-4h23.07c2.21,0,4,1.79,4,4v23.07c0,2.21-1.79,4-4,4h-2.37"/>
		<line class="st7" x1="16.85" y1="12.22" x2="16.85" y2="34.14"/>
		<line class="st7" x1="27.81" y1="23.18" x2="5.89" y2="23.18"/>
	</g>
	<g id="男" class="st0">
		<circle class="st7" cx="15.8" cy="24.24" r="15.26"/>
		<line class="st7" x1="39.53" y1="0.51" x2="26.59" y2="13.45"/>
		<polyline class="st7" points="39.54,11.93 39.54,0.51 28.12,0.51 		"/>
	</g>
	<g id="女" class="st0">
		<circle class="st7" cx="20.03" cy="14.29" r="13.88"/>
		<line class="st7" x1="20.04" y1="39.41" x2="20.04" y2="28.17"/>
		<line class="st7" x1="14.32" y1="33.39" x2="25.75" y2="33.39"/>
	</g>
	<g id="信号" class="st0">
		<path class="st7" d="M39.5,14.46c-4.98-4.98-11.86-8.06-19.46-8.06S5.56,9.47,0.57,14.46"/>
		<path class="st7" d="M6.25,20.13c3.45-3.07,7.99-4.95,12.97-4.95c5.4,0,10.29,2.19,13.83,5.73"/>
		<path class="st7" d="M12.57,26.45c1.79-1.37,4.03-2.2,6.46-2.2c2.95,0,5.61,1.19,7.54,3.12l0,0"/>
		<circle class="st7" cx="19.65" cy="33.92" r="0"/>
	</g>
	<g id="禁止" class="st0">
		<line class="st7" x1="33.76" y1="33.64" x2="6.31" y2="6.18"/>
		<circle class="st7" cx="20.03" cy="19.91" r="19.5"/>
	</g>
	<g id="信息" class="st0">
		<line class="st7" x1="20.04" y1="31.93" x2="20.04" y2="17.24"/>
		<circle class="st7" cx="20.03" cy="20" r="19.5"/>
		<circle class="st7" cx="20.04" cy="11.06" r="0"/>
	</g>
	<g id="警告" class="st0">
		<line class="st7" x1="20.03" y1="8.07" x2="20.03" y2="22.76"/>
		<circle class="st7" cx="20.03" cy="20" r="19.5"/>
		<circle class="st7" cx="20.03" cy="28.93" r="0"/>
	</g>
	<g id="保存" class="st0">
		<g id="复制_1_" class="st6">
			<path class="st8" d="M34.7,39.49H5.38c-2.67,0-4.84-2.17-4.84-4.84V5.33c0-2.67,2.17-4.84,4.84-4.84h24.66
				c1.06,0,2.08,0.42,2.83,1.17l5.5,5.5c0.75,0.75,1.17,1.77,1.17,2.83v24.66C39.54,37.33,37.37,39.49,34.7,39.49z"/>
		</g>
		<g id="复制_2_" class="st6">
			<path class="st8" d="M7.71,39.49V25.28c0-1.69,1.37-3.06,3.06-3.06h18.54c1.69,0,3.06,1.37,3.06,3.06v14.22"/>
		</g>
		<g id="复制_3_" class="st6">
			<path class="st8" d="M29.54,0.49v10.33c0,1.3-1.06,2.36-2.36,2.36H12.9c-1.3,0-2.36-1.06-2.36-2.36V0.49"/>
		</g>
	</g>
	<g id="锁定" class="st0">
		<path class="st7" d="M35.71,39.49H4.37c-2.12,0-3.83-1.71-3.83-3.83V20.32c0-2.12,1.71-3.83,3.83-3.83h31.34
			c2.12,0,3.83,1.71,3.83,3.83v15.34C39.54,37.78,37.82,39.49,35.71,39.49z"/>
		<line class="st7" x1="20.04" y1="30.52" x2="20.04" y2="24.46"/>
		<path class="st7" d="M9.44,16.49v-5.41c0-5.85,4.74-10.59,10.59-10.59h0c5.85,0,10.59,4.74,10.59,10.59v5.41"/>
	</g>
	<g id="解锁" class="st0">
		<path class="st7" d="M35.71,39.49H4.37c-2.12,0-3.83-1.71-3.83-3.83V20.32c0-2.12,1.71-3.83,3.83-3.83h31.34
			c2.12,0,3.83,1.71,3.83,3.83v15.34C39.54,37.78,37.82,39.49,35.71,39.49z"/>
		<line class="st7" x1="20.04" y1="30.52" x2="20.04" y2="24.46"/>
		<path class="st7" d="M18.34,16.49v-5.41c0-5.85,4.75-10.6,10.6-10.6h0c5.85,0,10.6,4.75,10.6,10.6"/>
	</g>
	<path id="订阅" class="st10" d="M20.04,30.3l-14,9.2v-35c0-2.21,1.54-4,3.43-4H30.6c1.9,0,3.43,1.79,3.43,4v35L20.04,30.3z"/>
	<g id="已订阅" class="st0">
		<polyline class="st7" points="11.62,16.41 17.45,22.24 28.44,11.25 		"/>
		<path id="订阅_1_" class="st7" d="M20.04,30.3l-14,9.2v-35c0-2.21,1.54-4,3.43-4H30.6c1.9,0,3.43,1.79,3.43,4v35L20.04,30.3z"/>
	</g>
	<g id="邮件" class="st0">
		<path class="st7" d="M39.54,9.57c0-2.21-1.79-4-4-4h-31c-2.21,0-4,1.79-4,4v21.67c0,2.21,1.79,4,4,4H35.5c2.2,0,3.99-1.78,4-3.98
			L39.54,9.57z"/>
		<polyline class="st7" points="1.85,6.62 19.48,20.41 38.14,6.54 		"/>
	</g>
	<path id="设置管理" class="st11" d="M39.38,18.57c-0.21-1.29-0.84-1.86-2.14-1.96c-0.62-0.05-1.25-0.05-1.88,0
		c-4.19,0.35-7.16-4.89-4.74-8.25c0.39-0.53,0.7-1.13,0.99-1.72c0.24-0.49,0.44-1.04,0.14-1.59c-0.89-1.61-2.4-2.38-4.1-2.69
		c-1.48-0.27-1.95,1.03-2.54,2.04c-0.3,0.51-0.59,1.02-0.93,1.5c-0.63,0.86-1.45,1.44-2.5,1.72c-2.91,0.78-5.13-0.23-6.69-3.06
		c-1.42-2.58-2.39-2.83-4.91-1.29C9.8,3.44,9.52,3.62,9.26,3.82C8.05,4.75,7.85,5.66,8.57,7C8.99,7.78,9.5,8.51,9.85,9.32
		c1.33,3.02-0.9,6.86-4.17,7.2c-0.95,0.1-1.91,0.04-2.87,0.08c-0.91,0.04-1.69,0.36-1.99,1.3c-0.43,1.37-0.44,2.76-0.01,4.13
		c0.24,0.76,0.8,1.23,1.63,1.28c0.51,0.03,1.03,0.01,1.54,0.01c1.79-0.04,3.44,0.23,4.72,1.68c1.88,2.15,2.05,4.26,0.51,6.89
		c-1.64,2.81-1.35,3.76,1.61,5.21c0.33,0.16,0.67,0.3,1.02,0.42c0.97,0.35,1.76,0.06,2.32-0.75c0.44-0.63,0.84-1.3,1.18-1.99
		c1.77-3.53,7.53-3.54,9.31-0.02c0.35,0.69,0.73,1.37,1.18,1.99c0.76,1.04,1.59,1.22,2.93,0.54c1.38-0.7,3.05-1.2,3.08-3.19
		c0.01-0.54-0.34-1.04-0.62-1.52c-0.35-0.6-0.74-1.19-1.03-1.83c-1.35-2.98,0.69-6.74,3.91-7.3c1.03-0.18,2.06-0.04,3.09-0.11
		c1.32-0.09,1.95-0.61,2.18-1.91C39.54,20.49,39.54,19.52,39.38,18.57z M20.07,26.32c-3.55,0.02-6.4-2.79-6.41-6.31
		c-0.01-3.54,2.82-6.35,6.37-6.35c3.51,0.01,6.3,2.8,6.31,6.3C26.36,23.47,23.55,26.31,20.07,26.32z"/>
	<g id="定位" class="st0">
		<path class="st1" d="M32.1,12.44C32.1,19.04,20,39,20,39S7.9,19.04,7.9,12.44S13.32,0.5,20,0.5S32.1,5.85,32.1,12.44z"/>
		<circle class="st1" cx="20" cy="13.04" r="5.22"/>
	</g>
	<g id="上传" class="st0">
		<path class="st7" d="M39.54,23.44V35.5c0,2.21-1.79,4-4,4h-31c-2.21,0-4-1.79-4-4V23.44"/>
		<polyline class="st7" points="34.41,14.91 20,0.5 5.59,14.91 		"/>
		<line class="st7" x1="20" y1="29.44" x2="20" y2="0.5"/>
	</g>
	<g id="下载" class="st0">
		<path class="st7" d="M39.54,23.44V35.5c0,2.21-1.79,4-4,4h-31c-2.21,0-4-1.79-4-4V23.44"/>
		<polyline class="st7" points="5.59,15.03 20,29.44 34.41,15.03 		"/>
		<line class="st7" x1="20" y1="0.5" x2="20" y2="29.44"/>
	</g>
	<g id="获取" class="st0">
		<circle class="st7" cx="20.04" cy="19.91" r="19.5"/>
		<polyline class="st7" points="8.79,18.35 20,29.56 31.21,18.35 		"/>
		<line class="st7" x1="20" y1="7.05" x2="20" y2="29.56"/>
	</g>
	<g id="排序_2_" class="st0">
		<polyline class="st7" points="32.04,12.54 20,0.5 7.96,12.54 		"/>
		<polyline class="st7" points="7.96,27.46 20,39.5 32.04,27.46 		"/>
	</g>
	<g id="刷新_x3001_更新" class="st0">
		<g class="st6">
			<polyline class="st8" points="4.89,39.5 4.89,32.3 12.09,32.3 			"/>
			<path class="st8" d="M38.07,12.65c0.92,2.27,1.43,4.75,1.43,7.35c0,10.77-8.73,19.5-19.5,19.5c-6.11,0-11.56-2.81-15.13-7.2"/>
		</g>
		<g class="st6">
			<polyline class="st8" points="35.11,0.5 35.11,7.7 27.91,7.7 			"/>
			<path class="st8" d="M1.93,27.35C1.01,25.08,0.5,22.6,0.5,20C0.5,9.23,9.23,0.5,20,0.5c6.11,0,11.56,2.81,15.13,7.2"/>
		</g>
	</g>
	<g id="重置" class="st0">
		<polyline class="st7" points="4.89,0.5 4.89,7.7 12.09,7.7 		"/>
		<path class="st7" d="M0.5,20c0,10.77,8.73,19.5,19.5,19.5S39.5,30.77,39.5,20S30.77,0.5,20,0.5c-6.1,0-11.55,2.8-15.13,7.19"/>
	</g>
	<g id="日历" class="st0">
		<path class="st7" d="M35.6,39.5H4.4c-2.15,0-3.9-1.75-3.9-3.9v-26c0-2.15,1.75-3.9,3.9-3.9h31.2c2.15,0,3.9,1.75,3.9,3.9v26
			C39.5,37.75,37.75,39.5,35.6,39.5z"/>
		<line class="st7" x1="10.79" y1="0.5" x2="10.79" y2="10.9"/>
		<line class="st7" x1="29.21" y1="0.5" x2="29.21" y2="10.9"/>
		<line class="st7" x1="39.5" y1="18.05" x2="0.5" y2="18.05"/>
	</g>
	<g id="收起" class="st0">
		<path class="st7" d="M35.5,39.5h-31c-2.21,0-4-1.79-4-4v-31c0-2.21,1.79-4,4-4h31c2.21,0,4,1.79,4,4v31
			C39.5,37.71,37.71,39.5,35.5,39.5z"/>
		<line class="st7" x1="8.28" y1="20" x2="31.72" y2="20"/>
	</g>
	<g id="展开" class="st0">
		<path class="st7" d="M35.5,39.5h-31c-2.21,0-4-1.79-4-4v-31c0-2.21,1.79-4,4-4h31c2.21,0,4,1.79,4,4v31
			C39.5,37.71,37.71,39.5,35.5,39.5z"/>
		<line class="st7" x1="8.28" y1="20" x2="31.72" y2="20"/>
		<line class="st7" x1="20" y1="8.28" x2="20" y2="31.72"/>
	</g>
	<rect id="未选中_1_" x="0.5" y="0.5" class="st12" width="39" height="39"/>
	<g id="选中部分" class="st0">
		<rect class="st13" width="40" height="40"/>
		<line class="st14" x1="9.1" y1="20" x2="30.9" y2="20"/>
	</g>
	<g id="选中_1_" class="st0">
		<rect id="选中" class="st13" width="40" height="40"/>
		<polyline class="st14" points="7.37,19.5 16.15,28.28 32.7,11.72 		"/>
	</g>
	<g id="展开_1_" class="st0">
		<circle class="st7" cx="20.03" cy="20" r="19.5"/>
		<polyline class="st7" points="9.19,16.97 20,27.78 30.81,16.97 		"/>
	</g>
	<g id="收起_1_" class="st0">
		<circle class="st7" cx="20.03" cy="20" r="19.5"/>
		<polyline class="st7" points="30.81,23.77 20,12.96 9.19,23.77 		"/>
	</g>
	<g id="成功" class="st0">
		<circle class="st15" cx="20.03" cy="20" r="20"/>
		<polyline class="st14" points="7.37,19.5 16.15,28.28 32.7,11.72 		"/>
	</g>
	<g id="成功_1_" class="st0">
		<circle class="st16" cx="20.03" cy="20" r="20"/>
		<polyline class="st17" points="7.37,19.5 16.15,28.28 32.7,11.72 		"/>
	</g>
	<g id="信息_1_" class="st0">
		<circle class="st13" cx="20" cy="20" r="20"/>
		<line class="st14" x1="20" y1="32.33" x2="20" y2="17.65"/>
		<circle class="st9" cx="20" cy="8.81" r="2"/>
	</g>
	<g id="信息_2_" class="st0">
		<circle class="st18" cx="20" cy="20" r="20"/>
		<line class="st19" x1="20" y1="32.33" x2="20" y2="17.65"/>
		<circle class="st13" cx="20" cy="8.81" r="2"/>
	</g>
	<g id="危险" class="st0">
		<circle class="st20" cx="20" cy="20" r="20"/>
		<path class="st14" d="M20,6.81l0,14.69L20,6.81z"/>
		<circle class="st9" cx="20" cy="30.33" r="2"/>
	</g>
	<g id="危险_1_" class="st0">
		<circle class="st21" cx="20" cy="20" r="20"/>
		<path class="st22" d="M20,6.81l0,14.69L20,6.81z"/>
		<circle class="st20" cx="20" cy="30.33" r="2"/>
	</g>
	<g id="错误_1_" class="st0">
		<circle class="st23" cx="20" cy="20" r="20"/>
		<g id="关闭_1_" class="st6">
			<line class="st24" x1="11.96" y1="11.92" x2="28.11" y2="28.08"/>
			<line class="st24" x1="28.11" y1="11.92" x2="11.96" y2="28.08"/>
		</g>
	</g>
	<g id="错误_2_" class="st0">
		<circle class="st25" cx="20" cy="20" r="20"/>
		<g id="关闭_2_" class="st6">
			<line class="st26" x1="11.96" y1="11.92" x2="28.11" y2="28.08"/>
			<line class="st26" x1="28.11" y1="11.92" x2="11.96" y2="28.08"/>
		</g>
	</g>
	<g id="错误_3_" class="st0">
		<circle class="st13" cx="20" cy="20" r="20"/>
		<circle class="st9" cx="12.79" cy="14.78" r="2.49"/>
		<circle class="st9" cx="27.36" cy="14.78" r="2.49"/>
		<path class="st27" d="M10.16,25.87c2.17,3.11,5.77,5.15,9.84,5.15c4.08,0,7.68-2.04,9.84-5.15"/>
	</g>
	<g id="失败" class="st0">
		<circle class="st28" cx="20" cy="20" r="20"/>
		<circle class="st9" cx="12.79" cy="14.78" r="2.49"/>
		<circle class="st9" cx="27.36" cy="14.78" r="2.49"/>
		<path class="st27" d="M26.36,29.11c-1.4-2.01-3.73-3.33-6.36-3.33c-2.64,0-4.96,1.32-6.36,3.33"/>
	</g>
	<g id="添加评论" class="st0">
		<path class="st7" d="M35.6,28.75H21.19l-10.4,8.35l0-8.35H4.4c-2.15,0-3.9-1.75-3.9-3.9V6.8c0-2.15,1.75-3.9,3.9-3.9h31.2
			c2.15,0,3.9,1.75,3.9,3.9v18.06C39.5,27.01,37.75,28.75,35.6,28.75z"/>
		<line class="st7" x1="11.89" y1="15.89" x2="28.11" y2="15.89"/>
		<line class="st7" x1="20" y1="7.78" x2="20" y2="24"/>
	</g>
	<polyline id="完成" class="st10" points="0.5,19.23 14.01,32.74 39.5,7.25 	"/>
	<polyline id="提交" class="st10" points="13.09,27.39 1.67,21.62 38.33,0.5 33.79,37.84 22.99,32.39 15.36,39.5 15.36,30.29 
		38.33,0.5 	"/>
	<g id="暂停" class="st0">
		<circle class="st7" cx="20.03" cy="20" r="19.5"/>
		<g class="st6">
			<line class="st8" x1="14.96" y1="10.06" x2="14.96" y2="29.93"/>
			<line class="st8" x1="25.11" y1="10.06" x2="25.11" y2="29.93"/>
		</g>
	</g>
	<path id="撤销" class="st10" d="M39.5,35.76c0,0-1.56-20.43-21.54-22.62c0-3.48,0-9.02,0-9.02L0.5,20.62l17.46,14.3v-9
		C17.96,25.92,30.49,24.15,39.5,35.76z"/>
	<g id="编辑界面" class="st0">
		<path class="st7" d="M17.08,17.08H5.38c-2.69,0-4.88-2.18-4.88-4.88V0.5h11.7c2.69,0,4.88,2.18,4.88,4.88V17.08z"/>
		<path class="st7" d="M22.92,17.08h11.7c2.69,0,4.88-2.18,4.88-4.88V0.5H27.8c-2.69,0-4.88,2.18-4.88,4.88V17.08z"/>
		<path class="st7" d="M17.08,22.92H5.38c-2.69,0-4.88,2.18-4.88,4.88v11.7h11.7c2.69,0,4.88-2.18,4.88-4.88V22.92z"/>
		<path class="st7" d="M22.92,22.92h11.7c2.69,0,4.88,2.18,4.88,4.88v11.7H27.8c-2.69,0-4.88-2.18-4.88-4.88V22.92z"/>
	</g>
	<g id="手册" class="st0">
		<g id="字典管理_2_" class="st6">
			<path class="st4" d="M35.68,39.5H9.04c-2.61,0-4.72-2.11-4.72-4.72V24.66"/>
			<path class="st3" d="M31.68,34.06H8.32c-2.21,0-4-1.79-4-4V4.5c0-2.21,1.79-4,4-4h23.36c2.21,0,4,1.79,4,4v25.55
				C35.68,32.27,33.89,34.06,31.68,34.06z"/>
		</g>
		<g class="st6">
			<path class="st4" d="M13.83,13.68c0.04-1.21,0.19-2.15,0.46-2.83c0.27-0.68,0.72-1.31,1.35-1.87c0.63-0.56,1.34-0.98,2.12-1.25
				c0.78-0.27,1.59-0.4,2.42-0.4c1.76,0,3.2,0.5,4.32,1.5c1.12,1,1.68,2.34,1.68,4.02c0,0.85-0.17,1.58-0.5,2.19
				c-0.34,0.61-1.07,1.44-2.19,2.49c-1.23,1.17-1.98,2.03-2.25,2.58c-0.28,0.55-0.42,1.47-0.42,2.76"/>
			<path class="st4" d="M20.82,27.23L20.82,27.23c-0.12,0-0.23-0.1-0.23-0.23v-0.03c0-0.12,0.1-0.23,0.23-0.23l0,0
				c0.12,0,0.23,0.1,0.23,0.23V27C21.04,27.12,20.94,27.23,20.82,27.23z"/>
		</g>
	</g>
	<g id="显示" class="st0">
		<path class="st7" d="M39.5,20c0,0-8.73,10.6-19.5,10.6S0.5,20,0.5,20S9.23,9.4,20,9.4S39.5,20,39.5,20z"/>
		<circle class="st7" cx="20" cy="20" r="6.39"/>
	</g>
	<g id="隐藏_x3001_不可见" class="st0">
		<path class="st7" d="M39.5,20c0,0-8.73,10.6-19.5,10.6S0.5,20,0.5,20S9.23,9.4,20,9.4S39.5,20,39.5,20z"/>
		<circle class="st7" cx="20" cy="20" r="6.39"/>
		<line class="st7" x1="39.5" y1="0.5" x2="0.5" y2="39.5"/>
	</g>
	<g id="标准" class="st0">
		<polygon class="st7" points="20,3.11 28.08,0.5 31.94,8.06 39.5,11.92 36.89,20 39.5,28.08 31.94,31.94 28.08,39.5 20,36.89 
			11.92,39.5 8.06,31.94 0.5,28.08 3.11,20 0.5,11.92 8.06,8.06 11.92,0.5 		"/>
		<circle class="st7" cx="20" cy="20" r="13"/>
		<polyline id="完成_1_" class="st7" points="11.67,19.67 17.44,25.44 28.33,14.55 		"/>
	</g>
	<g id="表格" class="st0">
		<path class="st7" d="M39.5,14.15h-39V4.5c0-2.21,1.79-4,4-4h31c2.21,0,4,1.79,4,4V14.15z"/>
		<rect x="0.5" y="14.15" class="st7" width="39" height="12.68"/>
		<path class="st7" d="M35.5,39.5h-31c-2.21,0-4-1.79-4-4v-8.67h39v8.67C39.5,37.71,37.71,39.5,35.5,39.5z"/>
		<line class="st7" x1="26.5" y1="14.15" x2="26.5" y2="39.5"/>
		<line class="st7" x1="13.5" y1="14.15" x2="13.5" y2="39.5"/>
	</g>
	<g id="计算" class="st0">
		<path class="st7" d="M29.75,33.65h-19.5c-2.15,0-3.9-1.75-3.9-3.9v-19.5c0-2.15,1.75-3.9,3.9-3.9h19.5c2.15,0,3.9,1.75,3.9,3.9
			v19.5C33.65,31.9,31.9,33.65,29.75,33.65z"/>
		<rect x="13.18" y="13.18" class="st7" width="13.65" height="13.65"/>
		<g class="st6">
			<line class="st8" x1="26.34" y1="0.5" x2="26.34" y2="6.35"/>
			<line class="st8" x1="20" y1="0.5" x2="20" y2="6.35"/>
			<line class="st8" x1="13.66" y1="0.5" x2="13.66" y2="6.35"/>
			<line class="st8" x1="26.34" y1="33.65" x2="26.34" y2="39.5"/>
			<line class="st8" x1="20" y1="33.65" x2="20" y2="39.5"/>
			<line class="st8" x1="13.66" y1="33.65" x2="13.66" y2="39.5"/>
			<line class="st8" x1="39.5" y1="26.34" x2="33.65" y2="26.34"/>
			<line class="st8" x1="39.5" y1="20" x2="33.65" y2="20"/>
			<line class="st8" x1="39.5" y1="13.66" x2="33.65" y2="13.66"/>
			<line class="st8" x1="6.35" y1="26.34" x2="0.5" y2="26.34"/>
			<line class="st8" x1="6.35" y1="20" x2="0.5" y2="20"/>
			<line class="st8" x1="6.35" y1="13.66" x2="0.5" y2="13.66"/>
		</g>
	</g>
</g>
</svg>
