<?xml version="1.0" standalone="no"?><!DOCTYPE svg PUBLIC "-//W3C//DTD SVG 1.1//EN" "http://www.w3.org/Graphics/SVG/1.1/DTD/svg11.dtd"><svg t="1662432791903" class="icon" viewBox="0 0 1024 1024" version="1.1" xmlns="http://www.w3.org/2000/svg" p-id="1830" xmlns:xlink="http://www.w3.org/1999/xlink" width="200" height="200"><path d="M912.49777778 985.31555555H111.50222222c-60.22257778 0-109.22666667-49.00408889-109.22666667-109.22666666V147.91111111c0-60.22257778 49.00408889-109.22666667 109.22666667-109.22666666h151.88195556c29.17262222 0 56.60444445 11.3664 77.23235555 31.9943111l102.98026667 102.98026667c6.87217778 6.87217778 16.01991111 10.66097778 25.74791111 10.66097778H912.49777778c60.22257778 0 109.22666667 49.00408889 109.22666667 109.22666667v582.54222222c0 60.22257778-49.00408889 109.22666667-109.22666667 109.22666666zM111.50222222 111.50222222c-20.08177778 0-36.40888889 16.32711111-36.40888889 36.40888889v728.17777778c0 20.0704 16.32711111 36.40888889 36.40888889 36.40888889h800.99555556c20.0704 0 36.40888889-16.33848889 36.40888889-36.40888889V293.54666667c0-20.08177778-16.33848889-36.40888889-36.40888889-36.40888889H469.34471111c-29.17262222 0-56.60444445-11.3664-77.23235556-31.99431111l-102.98026666-102.98026667c-6.87217778-6.87217778-16.01991111-10.66097778-25.74791111-10.66097778H111.50222222z m728.17777778 364.08888889c0-20.10453333-16.30435555-36.40888889-36.40888889-36.40888889H220.72888889c-20.10453333 0-36.40888889 16.30435555-36.40888889 36.40888889s16.30435555 36.40888889 36.40888889 36.40888889h582.54222222c20.10453333 0 36.40888889-16.30435555 36.40888889-36.40888889z m0 218.45333334c0-20.10453333-16.30435555-36.40888889-36.40888889-36.4088889H220.72888889c-20.10453333 0-36.40888889 16.30435555-36.40888889 36.4088889s16.30435555 36.40888889 36.40888889 36.40888888h582.54222222c20.10453333 0 36.40888889-16.30435555 36.40888889-36.40888888z" p-id="1831"></path></svg>