<?xml version="1.0" standalone="no"?><!DOCTYPE svg PUBLIC "-//W3C//DTD SVG 1.1//EN" "http://www.w3.org/Graphics/SVG/1.1/DTD/svg11.dtd"><svg t="1662187655182" class="icon" viewBox="0 0 1024 1024" version="1.1" xmlns="http://www.w3.org/2000/svg" p-id="2595" xmlns:xlink="http://www.w3.org/1999/xlink" width="200" height="200"><path d="M406.63 361.37c12.5 12.5 12.5 32.76 0 45.25-6.25 6.25-14.44 9.37-22.63 9.37s-16.38-3.12-22.63-9.37L160 205.25v185.19c0 17.67-14.33 32-32 32s-32-14.33-32-32V128v-0.08c0-0.5 0.01-1 0.04-1.5 0.01-0.26 0.04-0.52 0.06-0.77 0.02-0.26 0.03-0.52 0.06-0.78 0.03-0.32 0.07-0.64 0.11-0.95 0.03-0.2 0.05-0.39 0.07-0.59 0.05-0.34 0.11-0.68 0.17-1.02l0.09-0.51c0.07-0.34 0.15-0.68 0.22-1.02 0.04-0.17 0.07-0.34 0.12-0.5 0.08-0.33 0.17-0.65 0.26-0.98l0.15-0.54c0.09-0.3 0.19-0.6 0.29-0.9 0.07-0.2 0.13-0.4 0.2-0.6 0.1-0.27 0.2-0.54 0.3-0.8 0.09-0.23 0.18-0.46 0.27-0.68l0.3-0.69c0.11-0.26 0.23-0.51 0.35-0.76 0.09-0.2 0.19-0.39 0.29-0.59 0.14-0.28 0.28-0.55 0.42-0.83 0.09-0.17 0.19-0.34 0.28-0.5 0.16-0.29 0.33-0.58 0.5-0.87 0.09-0.15 0.19-0.3 0.28-0.45 0.18-0.29 0.36-0.58 0.56-0.87 0.1-0.15 0.21-0.3 0.31-0.44 0.19-0.28 0.39-0.55 0.59-0.83 0.12-0.17 0.25-0.33 0.38-0.49 0.19-0.25 0.38-0.49 0.58-0.73l0.54-0.63c0.16-0.18 0.31-0.37 0.48-0.55 0.71-0.78 1.46-1.53 2.24-2.24 0.18-0.17 0.37-0.32 0.56-0.48 0.21-0.18 0.41-0.36 0.63-0.54 0.24-0.2 0.49-0.39 0.74-0.58 0.16-0.13 0.32-0.26 0.49-0.38 0.27-0.2 0.55-0.4 0.83-0.59 0.15-0.1 0.29-0.21 0.44-0.31 0.29-0.19 0.58-0.38 0.87-0.56 0.15-0.09 0.3-0.19 0.45-0.28 0.29-0.17 0.58-0.34 0.87-0.5 0.16-0.09 0.33-0.19 0.49-0.27 0.28-0.15 0.56-0.29 0.84-0.43 0.19-0.1 0.38-0.19 0.58-0.28 0.26-0.12 0.52-0.24 0.78-0.35 0.22-0.1 0.45-0.2 0.68-0.29 0.23-0.1 0.47-0.19 0.7-0.28l0.78-0.3c0.21-0.07 0.42-0.14 0.62-0.21 0.29-0.1 0.58-0.19 0.88-0.28 0.19-0.06 0.37-0.11 0.56-0.16 0.32-0.09 0.63-0.18 0.95-0.26l0.54-0.12c0.33-0.08 0.66-0.15 0.99-0.22 0.18-0.04 0.37-0.07 0.55-0.1 0.33-0.06 0.65-0.12 0.98-0.17 0.21-0.03 0.43-0.05 0.64-0.08 0.3-0.04 0.6-0.08 0.9-0.11 0.29-0.03 0.58-0.05 0.87-0.07 0.23-0.02 0.46-0.04 0.69-0.05 0.53-0.03 1.06-0.04 1.6-0.04h262.43c17.67 0 32 14.33 32 32s-14.33 32-32 32H205.25l201.38 201.35z m521.36-233.54c0-0.47-0.01-0.94-0.04-1.41-0.01-0.27-0.04-0.54-0.06-0.81-0.02-0.25-0.03-0.5-0.06-0.75-0.03-0.33-0.08-0.65-0.12-0.98-0.02-0.19-0.04-0.38-0.07-0.56-0.05-0.35-0.11-0.7-0.18-1.04l-0.09-0.49c-0.07-0.35-0.15-0.7-0.23-1.04-0.04-0.16-0.07-0.32-0.11-0.48-0.08-0.34-0.18-0.67-0.27-1l-0.15-0.52c-0.09-0.31-0.19-0.61-0.3-0.92-0.07-0.2-0.13-0.39-0.2-0.59-0.1-0.27-0.2-0.54-0.31-0.82-0.09-0.22-0.17-0.45-0.26-0.67-0.1-0.24-0.2-0.47-0.31-0.71-0.11-0.25-0.22-0.5-0.34-0.75l-0.3-0.6c-0.14-0.27-0.27-0.55-0.42-0.82-0.09-0.17-0.19-0.34-0.29-0.52-0.16-0.29-0.32-0.57-0.49-0.85-0.1-0.16-0.2-0.31-0.29-0.47-0.18-0.28-0.36-0.57-0.54-0.85-0.11-0.16-0.22-0.31-0.32-0.47l-0.57-0.81c-0.13-0.17-0.26-0.34-0.4-0.51-0.18-0.24-0.37-0.48-0.56-0.71-0.19-0.23-0.38-0.45-0.57-0.67-0.15-0.17-0.29-0.35-0.45-0.51a31.84 31.84 0 0 0-2.25-2.25c-0.17-0.16-0.35-0.31-0.53-0.46-0.22-0.19-0.43-0.38-0.65-0.56-0.24-0.2-0.48-0.38-0.73-0.57-0.17-0.13-0.33-0.26-0.5-0.38-0.27-0.2-0.55-0.4-0.83-0.59-0.15-0.1-0.29-0.21-0.44-0.31-0.29-0.19-0.58-0.38-0.87-0.56-0.15-0.09-0.29-0.19-0.44-0.28-0.29-0.17-0.58-0.34-0.88-0.51a21.617 21.617 0 0 0-1.34-0.7c-0.19-0.09-0.38-0.19-0.57-0.28-0.26-0.12-0.52-0.24-0.78-0.35-0.22-0.1-0.44-0.2-0.67-0.29-0.24-0.1-0.47-0.19-0.71-0.28-0.26-0.1-0.51-0.2-0.77-0.29l-0.63-0.21c-0.29-0.1-0.58-0.19-0.87-0.28-0.19-0.06-0.38-0.11-0.57-0.16-0.31-0.09-0.63-0.18-0.95-0.26-0.18-0.04-0.36-0.08-0.54-0.13-0.33-0.08-0.65-0.15-0.98-0.22-0.19-0.04-0.37-0.07-0.56-0.1-0.32-0.06-0.65-0.12-0.98-0.16-0.22-0.03-0.43-0.06-0.65-0.08-0.3-0.04-0.59-0.08-0.89-0.11-0.29-0.03-0.59-0.05-0.88-0.07-0.23-0.02-0.45-0.04-0.68-0.05-0.53-0.03-1.06-0.04-1.6-0.04h-262.4c-17.67 0-32 14.33-32 32s14.33 32 32 32h185.19l-201.37 201.4c-12.5 12.5-12.5 32.76 0 45.25 6.25 6.25 14.44 9.37 22.63 9.37s16.38-3.12 22.63-9.37L864 205.26v185.19c0 17.67 14.33 32 32 32s32-14.33 32-32V128c0-0.06-0.01-0.11-0.01-0.17zM390.44 864H205.25l201.37-201.37c12.5-12.5 12.5-32.76 0-45.26s-32.76-12.5-45.25 0L160 818.75V633.56c0-17.67-14.33-32-32-32s-32 14.33-32 32v262.52c0 0.5 0.01 1 0.04 1.5 0.01 0.26 0.04 0.52 0.06 0.77 0.02 0.26 0.03 0.52 0.06 0.79 0.03 0.32 0.07 0.64 0.11 0.95 0.03 0.2 0.05 0.39 0.07 0.59 0.05 0.34 0.11 0.68 0.17 1.02l0.09 0.52c0.07 0.34 0.14 0.68 0.22 1.02l0.12 0.51c0.08 0.33 0.17 0.65 0.26 0.97l0.15 0.54c0.09 0.3 0.19 0.6 0.29 0.89 0.07 0.2 0.13 0.41 0.21 0.61a67.046 67.046 0 0 0 0.57 1.48c0.09 0.23 0.2 0.45 0.29 0.68 0.11 0.26 0.23 0.52 0.35 0.78 0.09 0.19 0.19 0.38 0.28 0.57 0.14 0.28 0.28 0.56 0.43 0.84l0.27 0.48c0.17 0.3 0.33 0.59 0.51 0.89 0.09 0.14 0.18 0.28 0.27 0.43 0.19 0.3 0.37 0.6 0.57 0.89 0.09 0.14 0.19 0.27 0.29 0.41 0.2 0.29 0.4 0.58 0.61 0.86 0.11 0.15 0.23 0.3 0.35 0.45 0.2 0.26 0.4 0.52 0.61 0.78 0.15 0.19 0.32 0.37 0.48 0.56l0.54 0.63c0.29 0.33 0.6 0.64 0.91 0.95 0.06 0.06 0.12 0.13 0.18 0.19s0.13 0.12 0.2 0.19c0.31 0.3 0.62 0.61 0.95 0.9 0.21 0.19 0.42 0.36 0.63 0.54 0.19 0.16 0.37 0.32 0.56 0.48 0.26 0.21 0.52 0.41 0.78 0.61 0.15 0.11 0.29 0.23 0.44 0.34 0.28 0.21 0.57 0.41 0.86 0.61l0.41 0.29c0.29 0.2 0.59 0.39 0.89 0.57 0.14 0.09 0.28 0.18 0.42 0.26 0.29 0.18 0.59 0.35 0.89 0.51l0.48 0.27c0.28 0.15 0.57 0.29 0.85 0.44 0.19 0.09 0.38 0.19 0.57 0.28 0.26 0.12 0.52 0.24 0.78 0.35 0.22 0.1 0.45 0.2 0.67 0.29 0.23 0.1 0.47 0.19 0.7 0.28 0.26 0.1 0.52 0.2 0.79 0.3 0.2 0.07 0.41 0.14 0.62 0.21 0.3 0.1 0.59 0.2 0.89 0.29 0.18 0.05 0.37 0.1 0.55 0.16 0.32 0.09 0.64 0.18 0.97 0.26 0.17 0.04 0.34 0.08 0.52 0.12 0.34 0.08 0.67 0.15 1.01 0.22 0.17 0.03 0.35 0.06 0.53 0.09 0.33 0.06 0.67 0.12 1.01 0.17 0.2 0.03 0.41 0.05 0.61 0.08 0.31 0.04 0.62 0.08 0.93 0.11 0.27 0.03 0.54 0.04 0.81 0.06 0.25 0.02 0.5 0.04 0.75 0.05 0.53 0.03 1.05 0.04 1.58 0.04h262.44c17.67 0 32-14.33 32-32s-14.33-32-32.01-32z m529.8 52.88c0.17-0.19 0.34-0.38 0.5-0.58 0.21-0.25 0.41-0.51 0.61-0.77 0.12-0.15 0.24-0.3 0.35-0.45 0.21-0.28 0.41-0.57 0.61-0.86l0.29-0.41c0.2-0.29 0.39-0.59 0.57-0.89 0.09-0.14 0.18-0.28 0.26-0.42 0.18-0.29 0.35-0.59 0.51-0.89 0.09-0.16 0.18-0.32 0.26-0.47 0.15-0.28 0.29-0.57 0.44-0.85 0.09-0.19 0.19-0.37 0.28-0.56 0.12-0.26 0.24-0.52 0.36-0.79 0.1-0.22 0.2-0.44 0.29-0.67 0.1-0.23 0.19-0.47 0.28-0.7l0.3-0.78c0.07-0.21 0.14-0.41 0.21-0.62 0.1-0.3 0.2-0.59 0.29-0.89 0.05-0.18 0.1-0.36 0.16-0.55 0.09-0.32 0.18-0.64 0.26-0.97l0.12-0.51c0.08-0.34 0.15-0.67 0.22-1.01l0.09-0.52c0.06-0.34 0.12-0.67 0.17-1.01 0.03-0.2 0.05-0.4 0.08-0.6 0.04-0.31 0.08-0.63 0.11-0.95 0.03-0.26 0.04-0.52 0.06-0.79l0.06-0.77c0.02-0.5 0.04-1 0.04-1.5V633.56c0-17.67-14.33-32-32-32s-32 14.33-32 32v185.19L662.63 617.37c-12.5-12.5-32.76-12.5-45.25 0-12.5 12.5-12.5 32.76 0 45.25L818.74 864H633.55c-17.67 0-32 14.33-32 32s14.33 32 32 32H896c0.53 0 1.06-0.01 1.58-0.04 0.25-0.01 0.5-0.04 0.75-0.05l0.81-0.06c0.31-0.03 0.62-0.07 0.93-0.11 0.2-0.03 0.41-0.05 0.61-0.08 0.34-0.05 0.67-0.11 1-0.17l0.53-0.09c0.34-0.07 0.67-0.14 1.01-0.22l0.51-0.12c0.33-0.08 0.65-0.17 0.97-0.26 0.18-0.05 0.37-0.1 0.55-0.16 0.3-0.09 0.59-0.19 0.89-0.29 0.21-0.07 0.41-0.14 0.62-0.21 0.26-0.09 0.53-0.2 0.79-0.3 0.23-0.09 0.47-0.18 0.7-0.28 0.23-0.09 0.45-0.19 0.68-0.29 0.26-0.11 0.52-0.23 0.78-0.35 0.19-0.09 0.38-0.19 0.57-0.28 0.28-0.14 0.56-0.28 0.84-0.43 0.16-0.09 0.32-0.18 0.49-0.27 0.3-0.17 0.59-0.33 0.88-0.51 0.15-0.09 0.29-0.18 0.44-0.27 0.3-0.18 0.59-0.37 0.88-0.56 0.14-0.1 0.28-0.2 0.43-0.3 0.28-0.2 0.57-0.39 0.84-0.6 0.16-0.12 0.31-0.24 0.46-0.36 0.25-0.2 0.51-0.39 0.76-0.6 0.2-0.17 0.4-0.34 0.59-0.51 0.2-0.17 0.4-0.34 0.59-0.51 0.36-0.33 0.72-0.67 1.07-1.01 0.03-0.03 0.05-0.05 0.08-0.07l0.09-0.09c0.34-0.34 0.67-0.69 1-1.05 0.17-0.22 0.34-0.42 0.52-0.62z" p-id="2596"></path></svg>