<?xml version="1.0" standalone="no"?><!DOCTYPE svg PUBLIC "-//W3C//DTD SVG 1.1//EN" "http://www.w3.org/Graphics/SVG/1.1/DTD/svg11.dtd"><svg t="1662432782906" class="icon" viewBox="0 0 1024 1024" version="1.1" xmlns="http://www.w3.org/2000/svg" p-id="1681" xmlns:xlink="http://www.w3.org/1999/xlink" width="200" height="200"><path d="M985.2928 501.02044445c-8.27164445 0-16.60017778-2.81031111-23.42684445-8.5560889L523.91253333 123.92675555c-6.78115555-5.71164445-16.70257778-5.70026667-23.47235555 0.02275556L64.46648889 492.41884445c-15.36 12.98204445-38.33173333 11.04782222-51.31377778-4.3008-12.98204445-15.36-11.04782222-38.33173333 4.3008-51.31377778l447.6928-378.37937778c27.09048889-22.90346667 66.74204445-22.9376 93.88942222-0.1024l449.70666667 378.42488889c15.38275555 12.94791111 17.36248889 35.91964445 4.41457778 51.3024-7.19075555 8.55608889-17.48764445 12.97066667-27.86417778 12.97066667z m-72.61297778 11.12746666c0-20.44586667-16.86186667-36.95502222-37.43288889-36.39751111-19.83146667 0.54613333-35.38488889 17.31697778-35.38488888 37.14844445v399.18933333H694.18097778v-107.06488889c0-100.64782222-80.91875555-183.55768889-181.5552-183.83075556-100.63644445-0.28444445-182.59057778 81.49902222-182.59057778 182.0672v108.82844445H184.36551111V512.89884445c0-19.84284445-15.55342222-36.61368889-35.38488889-37.14844445-20.57102222-0.56888889-37.43288889 15.95164445-37.43288889 36.39751111v436.34915556c0 20.10453333 16.30435555 36.40888889 36.40888889 36.40888888h218.49884445c20.10453333 0 36.40888889-16.30435555 36.40888888-36.40888888V804.64782222c0-60.15431111 48.0256-110.05724445 108.17991112-110.63751111 60.73457778-0.59164445 110.33031111 48.65137778 110.33031111 109.24942222v145.23733334c0 20.10453333 16.30435555 36.40888889 36.40888889 36.40888888h218.49884444c20.10453333 0 36.40888889-16.30435555 36.40888889-36.40888888V512.14791111z" p-id="1682"></path></svg>