<?xml version="1.0" standalone="no"?><!DOCTYPE svg PUBLIC "-//W3C//DTD SVG 1.1//EN" "http://www.w3.org/Graphics/SVG/1.1/DTD/svg11.dtd"><svg t="1662434706804" class="icon" viewBox="0 0 1024 1024" version="1.1" xmlns="http://www.w3.org/2000/svg" p-id="3012" xmlns:xlink="http://www.w3.org/1999/xlink" width="200" height="200"><path d="M876.00924445 1021.72444445H147.99075555C87.72266667 1021.72444445 38.68444445 972.68622222 38.68444445 912.41813333V184.39964445C38.68444445 124.13155555 87.72266667 75.09333333 147.99075555 75.09333333h36.12444445c20.10453333 0 36.40888889 16.30435555 36.40888889 36.40888889s-16.30435555 36.40888889-36.40888889 36.40888889h-36.12444445c-20.11591111 0-36.48853333 16.37262222-36.48853333 36.48853334v728.01848888c0 20.11591111 16.37262222 36.48853333 36.48853333 36.48853334h728.0184889c20.11591111 0 36.48853333-16.37262222 36.48853333-36.48853334V184.39964445c0-20.11591111-16.37262222-36.48853333-36.48853333-36.48853334h-35.86275556c-20.10453333 0-36.40888889-16.30435555-36.40888889-36.40888889s16.30435555-36.40888889 36.40888889-36.40888889h35.86275556c60.26808889 0 109.30631111 49.03822222 109.3063111 109.30631112v728.01848888c0 60.26808889-49.03822222 109.30631111-109.3063111 109.30631112zM329.95555555 184.32V38.68444445c0-20.10453333-16.30435555-36.40888889-36.40888888-36.4088889s-36.40888889 16.30435555-36.40888889 36.4088889v145.63555555c0 20.10453333 16.30435555 36.40888889 36.40888889 36.40888889s36.40888889-16.30435555 36.40888888-36.40888889z m436.90666667 0V38.68444445c0-20.10453333-16.30435555-36.40888889-36.40888889-36.4088889s-36.40888889 16.30435555-36.40888888 36.4088889v145.63555555c0 20.10453333 16.30435555 36.40888889 36.40888888 36.40888889s36.40888889-16.30435555 36.40888889-36.40888889z m-109.22666667-72.81777778c0-20.10453333-16.30435555-36.40888889-36.40888888-36.40888889H402.77333333c-20.10453333 0-36.40888889 16.30435555-36.40888888 36.40888889s16.30435555 36.40888889 36.40888888 36.40888889h218.45333334c20.10453333 0 36.40888889-16.30435555 36.40888888-36.40888889z m145.63555556 254.86222223c0-20.10453333-16.30435555-36.40888889-36.40888889-36.4088889H257.13777778c-20.10453333 0-36.40888889 16.30435555-36.40888889 36.4088889s16.30435555 36.40888889 36.40888889 36.40888888h509.72444444c20.10453333 0 36.40888889-16.30435555 36.40888889-36.40888888z m0 218.45333333c0-20.10453333-16.30435555-36.40888889-36.40888889-36.40888889H257.13777778c-20.10453333 0-36.40888889 16.30435555-36.40888889 36.40888889s16.30435555 36.40888889 36.40888889 36.40888889h509.72444444c20.10453333 0 36.40888889-16.30435555 36.40888889-36.40888889z m0 218.45333333c0-20.10453333-16.30435555-36.40888889-36.40888889-36.40888889H257.13777778c-20.10453333 0-36.40888889 16.30435555-36.40888889 36.40888889s16.30435555 36.40888889 36.40888889 36.40888889h509.72444444c20.10453333 0 36.40888889-16.30435555 36.40888889-36.40888889z" p-id="3013"></path></svg>