<?xml version="1.0" standalone="no"?><!DOCTYPE svg PUBLIC "-//W3C//DTD SVG 1.1//EN" "http://www.w3.org/Graphics/SVG/1.1/DTD/svg11.dtd"><svg t="1662187731013" class="icon" viewBox="0 0 1024 1024" version="1.1" xmlns="http://www.w3.org/2000/svg" p-id="1637" xmlns:xlink="http://www.w3.org/1999/xlink" width="200" height="200"><path d="M96 128c0-17.67 14.33-32 32-32h768c17.67 0 32 14.33 32 32s-14.33 32-32 32H128c-17.67 0-32-14.33-32-32z m32 800h768c17.67 0 32-14.33 32-32s-14.33-32-32-32H128c-17.67 0-32 14.33-32 32s14.33 32 32 32z m384.1-256H896c17.67 0 32-14.33 32-32s-14.33-32-32-32H512.1c-17.67 0-32 14.33-32 32s14.33 32 32 32z m0-256H896c17.67 0 32-14.33 32-32s-14.33-32-32-32H512.1c-17.67 0-32 14.33-32 32s14.33 32 32 32zM340.65 756.65c8.19 0 16.38-3.12 22.63-9.37 12.5-12.5 12.5-32.76 0-45.25L173.25 512l190.02-190.03c12.5-12.5 12.5-32.76 0-45.25-12.5-12.5-32.76-12.5-45.25 0L105.37 489.37c-12.5 12.5-12.5 32.76 0 45.26l212.65 212.65c6.25 6.25 14.44 9.37 22.63 9.37z" p-id="1638"></path></svg>