<?xml version="1.0" standalone="no"?><!DOCTYPE svg PUBLIC "-//W3C//DTD SVG 1.1//EN" "http://www.w3.org/Graphics/SVG/1.1/DTD/svg11.dtd"><svg t="1662432796747" class="icon" viewBox="0 0 1024 1024" version="1.1" xmlns="http://www.w3.org/2000/svg" p-id="1979" xmlns:xlink="http://www.w3.org/1999/xlink" width="200" height="200"><path d="M912.896 620.69191111h-35.46453333v-108.4416c0-20.10453333-16.30435555-36.40888889-36.40888889-36.40888889H547.64657778v-70.39431111h54.64746667c60.22257778 0 109.22666667-49.00408889 109.22666666-109.22666666v-182.272c0-60.22257778-49.00408889-109.22666667-109.22666666-109.22666667H420.19271111c-60.22257778 0-109.22666667 49.00408889-109.22666666 109.22666667v182.272c0 60.22257778 49.00408889 109.22666667 109.22666666 109.22666666h54.64746667v70.39431111h-290.70222223c-20.10453333 0-36.40888889 16.30435555-36.40888888 36.40888889v108.4416h-36.20408889c-60.22257778 0-109.22666667 49.00408889-109.22666667 109.22666667v182.272c0 60.22257778 49.00408889 109.22666667 109.22666667 109.22666667h182.11271111c60.22257778 0 109.22666667-49.00408889 109.22666666-109.22666667v-182.272c0-60.22257778-49.00408889-109.22666667-109.22666666-109.22666667h-73.07946667v-72.03271111H804.63644445v72.03271111h-73.84177778c-60.22257778 0-109.22666667 49.00408889-109.22666667 109.22666667v182.272c0 60.22257778 49.00408889 109.22666667 109.22666667 109.22666667h182.11271111c60.22257778 0 109.22666667-49.00408889 109.22666667-109.22666667v-182.272c-0.01137778-60.22257778-49.00408889-109.22666667-109.23804445-109.22666667zM383.78382222 296.22044445v-182.272c0-20.08177778 16.32711111-36.40888889 36.40888889-36.4088889h182.11271111c20.0704 0 36.40888889 16.32711111 36.40888889 36.4088889v182.272c0 20.08177778-16.33848889 36.40888889-36.40888889 36.40888888H420.19271111c-20.08177778 0-36.40888889-16.33848889-36.40888889-36.40888888z m-53.74862222 433.69813333v182.272c0 20.0704-16.32711111 36.40888889-36.40888889 36.40888889H111.5136c-20.08177778 0-36.40888889-16.33848889-36.40888889-36.40888889v-182.272c0-20.0704 16.32711111-36.40888889 36.40888889-36.40888889h182.11271111c20.0704 0 36.40888889 16.33848889 36.40888889 36.40888889z m619.26968889 182.272c0 20.0704-16.33848889 36.40888889-36.40888889 36.40888889H730.79466667c-20.0704 0-36.40888889-16.33848889-36.40888889-36.40888889v-182.272c0-20.0704 16.33848889-36.40888889 36.40888889-36.40888889h182.11271111c20.0704 0 36.40888889 16.33848889 36.40888889 36.40888889v182.272z" p-id="1980"></path></svg>