<?xml version="1.0" standalone="no"?><!DOCTYPE svg PUBLIC "-//W3C//DTD SVG 1.1//EN" "http://www.w3.org/Graphics/SVG/1.1/DTD/svg11.dtd"><svg t="1662371647132" class="icon" viewBox="0 0 1024 1024" version="1.1" xmlns="http://www.w3.org/2000/svg" p-id="1352" xmlns:xlink="http://www.w3.org/1999/xlink" width="200" height="200"><path d="M912.67982222 840.00995555H111.32017778c-60.22257778 0-109.22666667-49.00408889-109.22666667-109.22666666v-582.88355556c0-60.22257778 49.00408889-109.22666667 109.22666667-109.22666666h801.35964444c60.22257778 0 109.22666667 49.00408889 109.22666667 109.22666666v582.88355556c0 60.22257778-49.00408889 109.22666667-109.22666667 109.22666666z m-801.35964444-728.5191111c-20.08177778 0-36.40888889 16.32711111-36.40888889 36.40888888v582.88355556c0 20.0704 16.32711111 36.40888889 36.40888889 36.40888889h801.35964444c20.0704 0 36.40888889-16.33848889 36.40888889-36.40888889v-582.88355556c0-20.08177778-16.33848889-36.40888889-36.40888889-36.40888888H111.32017778z m765.15555555 837.00622222c0-20.10453333-16.30435555-36.40888889-36.40888888-36.40888889H184.58168889c-20.10453333 0-36.40888889 16.30435555-36.40888889 36.40888889s16.30435555 36.40888889 36.40888889 36.40888888h655.48515556c20.11591111 0 36.40888889-16.30435555 36.40888888-36.40888888zM615.29884445 711.33866667c-19.456 0-32.85902222-11.44604445-41.48337778-23.18791112-7.9872-10.8544-14.17671111-22.41422222-18.67093334-31.26613333-8.72675555-17.19182222-27.93244445-23.31306667-43.05351111-23.31306667h-0.13653333c-15.09831111 0.03413333-34.32675555 6.23502222-43.008 23.51786667-5.51822222 10.99093333-11.69635555 21.4016-18.36373334 30.93617778-14.59768889 20.86684445-37.44426667 28.17137778-61.1328 19.54702222-4.94933333-1.80906667-10.78613333-4.03911111-16.67982222-6.94044444-24.4736-12.03768889-42.04088889-24.21191111-48.15075555-44.52124445-6.07573333-20.19555555 1.71804445-39.76533333 15.28035555-62.93048888 16.00853333-27.32942222 14.80248889-45.68177778-4.43733333-67.69777778-9.96693333-11.41191111-23.09688889-15.65582222-46.81955555-15.13244445l-0.53475556 0.01137778c-2.10488889 0-4.22115555 0.03413333-6.32604444 0.06826667-5.34755555 0.07964445-10.87715555 0.17066667-16.75946667-0.19342222-21.66328889-1.30844445-38.44551111-14.47253333-44.87395556-35.21422223-7.48657778-24.1664-7.40693333-48.57173333 0.22755556-72.54471111 3.98222222-12.50417778 15.79235555-33.72373333 50.19875555-35.27111111 5.76853333-0.26168889 11.38915555-0.27306667 16.82773334-0.28444445 7.71413333-0.02275555 15.00728889-0.03413333 21.8112-0.75093333 13.65333333-1.4336 26.55573333-10.45617778 34.48604444-24.12088889 7.96444445-13.73297778 9.39804445-29.4912 3.82293334-42.17742222-2.50311111-5.68888889-5.98471111-11.55982222-9.67111112-17.76071111-2.44622222-4.11875555-4.97208889-8.37404445-7.39555555-12.87964445-15.6672-29.14986667-10.05795555-55.28462222 16.20195555-75.60533333 4.96071111-3.83431111 9.92142222-6.98595555 13.69884445-9.29564444 18.40924445-11.30951111 38.35448889-21.01475555 59.38062222-15.45102223 20.98062222 5.55235555 33.46204445 23.74542222 43.81582222 42.57564445 16.2816 29.60497778 35.88551111 38.85511111 65.536 30.91342222 8.98844445-2.40071111 15.78097778-7.08835555 21.4016-14.7456 3.1744-4.33493333 6.144-9.39804445 9.27288889-14.75697777 0.8192-1.39946667 1.6384-2.79893333 2.46897778-4.1984 0.94435555-1.58151111 1.92284445-3.35644445 2.95822222-5.23377778 7.44106667-13.44853333 22.91484445-41.42648889 58.28835556-34.94115556 34.57706667 6.33742222 59.61955555 23.11964445 74.43342222 49.88017778 10.77475555 19.456 2.048 37.83111111-1.24017778 44.73742222-5.37031111 11.29813333-10.47893333 20.1728-16.06542222 27.93244444-11.85564445 16.44088889-7.91893333 36.72746667-0.28444444 50.24426667 7.7824 13.76711111 23.552 27.87555555 44.49848888 26.112 10.19448889-0.85333333 20.38897778-0.86471111 30.3104-0.04551111 29.4912 2.43484445 47.55911111 19.06915555 52.25813334 48.11662222 2.65102222 16.39537778 2.60551111 32.62008889-0.13653334 48.2304-5.10862222 29.14986667-22.94897778 44.99911111-53.00906666 47.09262222-6.7584 0.46648889-13.12995555 0.38684445-19.28533334 0.29582223-7.70275555-0.1024-14.98453333-0.2048-21.35608888 0.89884444-13.93777778 2.43484445-26.65813333 12.19697778-34.01955556 26.12337778-7.2704 13.75573333-8.16924445 28.8768-2.46897778 41.48337778 2.46897778 5.44995555 5.84817778 11.0592 9.4208 17.00977777 1.25155555 2.08213333 2.50311111 4.15288889 3.73191111 6.2464 0.47786667 0.8192 0.96711111 1.6384 1.46773333 2.4576 4.57386667 7.58897778 10.84302222 17.98826667 10.63822223 31.60746667-0.60302222 39.59466667-31.36853333 54.20373333-49.74364445 62.91911111-2.44622222 1.16053333-4.74453333 2.2528-6.91768888 3.34506667-11.4688 5.79128889-21.56088889 8.15786667-30.4128 8.15786667zM512.11377778 584.24888889c37.93351111 0 71.25902222 19.26257778 87.01724444 50.30115556 3.64088889 7.168 8.57884445 16.41813333 14.4384 24.38257777 1.20604445 1.6384 2.08213333 2.56 2.61688889 3.04924445 1.06951111-0.2048 3.3792-0.85333333 7.31591111-2.83306667 2.70791111-1.36533333 5.39306667-2.63964445 7.9872-3.86844445 18.59128889-8.81777778 21.25368889-11.61671111 21.54951111-18.15893333-0.60302222-1.49048889-17.19182222-29.11573333-20.84408888-37.19395555-12.03768889-26.60124445-10.6496-57.53742222 3.81155555-84.87822222 14.4384-27.30666667 40.28871111-46.61475555 69.13137778-51.65511112 10.92266667-1.91146667 21.34471111-1.76355555 30.52657777-1.62702222 5.38168889 0.07964445 10.46755555 0.14791111 15.16657778-0.18204444 3.81155555-0.26168889 5.66613333-0.8192 6.37155556-1.09226667 0.3072-0.6144 0.93297778-2.17315555 1.47911111-5.31342222 1.78631111-10.18311111 1.79768889-20.8896 0.03413333-31.83502223-0.56888889-3.53848889-1.27431111-5.12-1.55875555-5.64337777-0.55751111-0.25031111-2.26417778-0.86471111-6.05297778-1.18328889-7.21351111-0.59164445-27.24977778 0.36408889-29.77564445 0.36408889-34.08782222 0-65.7408-19.1488-83.92248888-51.31377778-19.34222222-34.2016-18.11342222-73.81902222 3.20853333-103.37848889 3.80017778-5.27928889 12.32213333-21.98186667 12.58382222-22.57351111-7.66862222-11.95804445-19.99075555-19.17155555-38.47964444-22.57351111-1.83182222 2.13902222-19.74044445 33.37102222-24.42808889 39.75395556-12.26524445 16.73671111-28.55822222 27.92106667-48.42382222 33.23448888-25.96408889 6.94044445-49.664 5.64337778-70.46257778-3.85706666-20.41173333-9.32977778-37.5808-26.46471111-51.04071111-50.93831112-8.06684445-14.66595555-12.1856-17.96551111-13.22097778-18.61404444-1.2288 0.05688889-6.49671111 0.88746667-20.93511111 9.75075556-4.02773333 2.48035555-6.90631111 4.41457778-9.3184 6.28053333-4.31217778 3.33368889-5.54097778 5.27928889-5.82542222 5.79128889 0.04551111 0.56888889 0.37546667 2.78755555 2.87857778 7.44106666 1.92284445 3.584 4.08462222 7.21351111 6.36017777 11.0592 4.27804445 7.20213333 8.704 14.65457778 12.41315556 23.0968889 11.88977778 27.04497778 9.53457778 59.4944-6.31466667 86.78968888-15.80373333 27.2384-42.72355555 45.34044445-71.99857778 48.41244445-9.30702222 0.97848889-18.2272 1.00124445-26.84017778 1.01262222-5.14275555 0.01137778-10.00106667 0.02275555-14.72284444 0.23893333-3.06062222 0.13653333-4.67626667 0.59164445-5.38168889 0.84195556l-0.03413333 0.1024c-4.51697778 14.18808889-4.55111111 28.64924445-0.1024 42.99662222 0.06826667 0.2048 0.12515555 0.37546667 0.18204444 0.512 0.14791111 0.02275555 0.31857778 0.03413333 0.53475556 0.05688889 4.02773333 0.23893333 8.3968 0.17066667 13.03893333 0.1024 2.26417778-0.03413333 4.53973333-0.06826667 6.80391111-0.06826667 26.05511111-0.54613333 59.15306667 2.65102222 84.7872 31.99431112 33.4848 38.32035555 36.70471111 79.23484445 9.86453334 125.08728888-9.76213333 16.66844445-10.55857778 22.35733333-10.55857778 23.79093334 0.79644445 1.21742222 4.69902222 5.65475555 22.64177778 14.47253333 3.80017778 1.86595555 8.0896 3.50435555 11.78737778 4.84693333 1.05813333 0.38684445 1.72942222 0.50062222 2.07075555 0.54613334 0.34133333-0.28444445 0.96711111-0.89884445 1.7408-2.01386667 5.30204445-7.58897778 10.25137778-15.92888889 14.70008889-24.79217778 15.64444445-31.19786667 48.98133333-50.63111111 86.97173333-50.72213333h0.22755556z m0.44373333-44.35057778c-27.15875555 0-52.58808889-10.42204445-71.66862222-29.36604444-19.02364445-18.88711111-29.52533333-44.12302222-29.5936-71.0656-0.06826667-27.07911111 10.3424-52.45155555 29.32053333-71.42968889 19.00088889-19.01226667 44.4416-29.46844445 71.63448889-29.46844445h0.23893334c26.9312 0.05688889 52.16711111 10.46755555 71.03146666 29.30915556 18.87573333 18.85297778 29.29777778 44.05475555 29.37742222 70.98595556 0.13653333 55.46666667-44.65777778 100.78435555-99.86275555 101.03466666h-0.47786667z m-0.3072-151.99573333c-14.01742222 0-27.06773333 5.33617778-36.75022222 15.01866667-9.6256 9.63697778-14.91626667 22.57351111-14.88213334 36.43164444 0.03413333 13.74435555 5.37031111 26.58986667 15.03004445 36.18133333 9.76213333 9.69386667 22.86933333 15.03004445 36.90951111 15.03004445h0.23893334c28.0576-0.12515555 50.82453333-23.25617778 50.75626666-51.57546667-0.06826667-28.58097778-22.55075555-51.02933333-51.17724444-51.08622222h-0.12515556z" p-id="1353"></path></svg>