<?xml version="1.0" standalone="no"?><!DOCTYPE svg PUBLIC "-//W3C//DTD SVG 1.1//EN" "http://www.w3.org/Graphics/SVG/1.1/DTD/svg11.dtd"><svg t="1662187734698" class="icon" viewBox="0 0 1024 1024" version="1.1" xmlns="http://www.w3.org/2000/svg" p-id="1787" xmlns:xlink="http://www.w3.org/1999/xlink" width="200" height="200"><path d="M896 160H128c-17.67 0-32-14.33-32-32s14.33-32 32-32h768c17.67 0 32 14.33 32 32s-14.33 32-32 32z m32 736c0-17.67-14.33-32-32-32H128c-17.67 0-32 14.33-32 32s14.33 32 32 32h768c17.67 0 32-14.33 32-32zM543.89 640c0-17.67-14.33-32-32-32H128c-17.67 0-32 14.33-32 32s14.33 32 32 32h383.9c17.67 0 31.99-14.33 31.99-32z m0-256c0-17.67-14.33-32-32-32H128c-17.67 0-32 14.33-32 32s14.33 32 32 32h383.9c17.67 0 31.99-14.33 31.99-32z m162.08 363.28l212.65-212.65c12.5-12.5 12.5-32.76 0-45.26L705.98 276.72c-12.5-12.5-32.76-12.5-45.25 0-12.5 12.5-12.5 32.76 0 45.25L850.75 512 660.72 702.03c-12.5 12.5-12.5 32.76 0 45.25 6.25 6.25 14.44 9.37 22.63 9.37s16.38-3.12 22.62-9.37z" p-id="1788"></path></svg>