<?xml version="1.0" standalone="no"?><!DOCTYPE svg PUBLIC "-//W3C//DTD SVG 1.1//EN" "http://www.w3.org/Graphics/SVG/1.1/DTD/svg11.dtd"><svg t="1662188644819" class="icon" viewBox="0 0 1024 1024" version="1.1" xmlns="http://www.w3.org/2000/svg" p-id="1531" xmlns:xlink="http://www.w3.org/1999/xlink" width="200" height="200"><path d="M26.32969482 81.24643555c-15.17037037-15.17037037-15.17037037-39.75850667 0-54.91674073 7.58518518-7.58518518 17.52481185-11.37170963 27.46443851-11.37170964s19.87925333 3.78652445 27.46443852 11.37170964l244.38859852 244.38859851V45.96622222c0-21.44483555 17.39131259-38.83614815 38.83614815-38.83614814s38.83614815 17.39131259 38.83614815 38.83614814v318.60205037c0 0.60681482-0.0121363 1.21362963-0.04854519 1.82044444-0.0121363 0.3155437-0.04854518 0.63108741-0.07281778 0.93449482-0.02427259 0.3155437-0.03640889 0.63108741-0.07281778 0.94663112-0.03640889 0.38836148-0.08495408 0.77672297-0.13349925 1.15294814-0.03640889 0.24272592-0.06068148 0.47331555-0.08495408 0.71604148-0.06068148 0.41263408-0.13349925 0.82526815-0.20631704 1.23790223l-0.10922666 0.6189511c-0.08495408 0.41263408-0.18204445 0.82526815-0.26699852 1.23790223-0.04854518 0.20631703-0.08495408 0.41263408-0.14563555 0.60681482-0.09709037 0.40049778-0.20631703 0.78885925-0.31554371 1.18935703l-0.18204444 0.65536c-0.10922667 0.36408889-0.23058963 0.72817778-0.35195259 1.09226667-0.08495408 0.24272592-0.15777185 0.48545185-0.24272593 0.72817778-0.12136297 0.32768-0.24272592 0.65536-0.3640889 0.9709037-0.10922667 0.27913482-0.21845333 0.55826963-0.32768 0.82526815l-0.36408888 0.83740445c-0.13349925 0.3155437-0.27913482 0.61895111-0.42477037 0.9223585-0.10922667 0.24272592-0.23058963 0.47331555-0.35195259 0.7160415-0.16990815 0.3398163-0.3398163 0.6674963-0.50972444 1.00731258-0.10922667 0.20631703-0.23058963 0.41263408-0.3398163 0.60681482-0.19418075 0.35195259-0.40049778 0.70390518-0.60681482 1.05585777-0.10922667 0.18204445-0.23058963 0.36408889-0.3398163 0.54613333-0.21845333 0.35195259-0.43690667 0.70390518-0.67963258 1.05585778-0.12136297 0.18204445-0.25486222 0.36408889-0.37622519 0.53399705-0.23058963 0.3398163-0.47331555 0.6674963-0.71604148 1.00731259-0.14563555 0.20631703-0.30340741 0.40049778-0.46117927 0.59467851-0.23058963 0.30340741-0.46117925 0.59467852-0.70390518 0.88594964l-0.65536 0.76458666c-0.19418075 0.21845333-0.37622518 0.44904297-0.58254222 0.6674963-0.86167703 0.94663111-1.77189925 1.85685333-2.71853038 2.71853037-0.21845333 0.20631703-0.44904297 0.38836148-0.67963258 0.58254222-0.25486222 0.21845333-0.49758815 0.43690667-0.76458667 0.65536-0.29127111 0.24272592-0.59467852 0.47331555-0.89808592 0.70390518-0.19418075 0.15777185-0.38836148 0.3155437-0.59467853 0.46117927-0.32768 0.24272592-0.6674963 0.48545185-1.00731258 0.71604148-0.18204445 0.12136297-0.35195259 0.25486222-0.53399705 0.37622518-0.35195259 0.23058963-0.70390518 0.46117925-1.05585777 0.6796326-0.18204445 0.10922667-0.36408889 0.23058963-0.54613333 0.33981629-0.35195259 0.20631703-0.70390518 0.41263408-1.05585779 0.60681481-0.19418075 0.10922667-0.40049778 0.23058963-0.59467851 0.32768-0.3398163 0.18204445-0.67963259 0.35195259-1.01944889 0.52186074-0.23058963 0.12136297-0.46117925 0.23058963-0.70390518 0.3398163-0.3155437 0.14563555-0.63108741 0.29127111-0.94663112 0.42477037-0.26699852 0.12136297-0.54613333 0.24272592-0.82526815 0.35195259-0.27913482 0.12136297-0.57040592 0.23058963-0.84954073 0.3398163l-0.94663112 0.36408889c-0.25486222 0.08495408-0.50972445 0.16990815-0.75245036 0.25486222-0.35195259 0.12136297-0.70390518 0.23058963-1.06799408 0.3398163-0.23058963 0.07281778-0.44904297 0.13349925-0.67963259 0.19418074-0.38836148 0.10922667-0.76458667 0.21845333-1.15294815 0.3155437l-0.65536 0.14563556c-0.40049778 0.09709037-0.80099555 0.18204445-1.20149333 0.26699852-0.21845333 0.04854518-0.44904297 0.08495408-0.6674963 0.12136296-0.40049778 0.07281778-0.78885925 0.14563555-1.18935704 0.20631704-0.25486222 0.03640889-0.52186075 0.06068148-0.77672296 0.09709037-0.36408889 0.04854518-0.72817778 0.09709037-1.09226667 0.13349925-0.35195259 0.03640889-0.70390518 0.06068148-1.05585777 0.08495408-0.27913482 0.02427259-0.55826963 0.04854518-0.83740445 0.06068148-0.6432237 0.03640889-1.28644741 0.04854518-1.94180741 0.04854519H45.96622222c-21.44483555 0-38.83614815-17.39131259-38.83614814-38.83614815s17.39131259-38.83614815 38.83614814-38.83614815h224.75207111L26.32969482 81.24643555z m594.36297481 283.4432c0 0.57040592 0.0121363 1.14081185 0.04854519 1.71121778 0.0121363 0.32768 0.04854518 0.65536 0.07281777 0.98304 0.02427259 0.30340741 0.03640889 0.60681482 0.07281778 0.91022222 0.03640889 0.40049778 0.09709037 0.78885925 0.14563555 1.18935704 0.02427259 0.23058963 0.04854518 0.46117925 0.08495408 0.67963259 0.06068148 0.42477037 0.13349925 0.84954075 0.21845333 1.26217482l0.10922667 0.59467852c0.08495408 0.42477037 0.18204445 0.84954075 0.27913482 1.26217481 0.04854518 0.19418075 0.08495408 0.38836148 0.13349926 0.58254222 0.09709037 0.41263408 0.21845333 0.81313185 0.32768 1.21362963l0.18204444 0.63108741c0.10922667 0.37622518 0.23058963 0.74031408 0.36408889 1.11653926 0.08495408 0.24272592 0.15777185 0.47331555 0.24272592 0.71604148 0.12136297 0.32768 0.24272592 0.65536 0.37622519 0.9951763 0.10922667 0.26699852 0.20631703 0.54613333 0.3155437 0.81313185 0.12136297 0.29127111 0.24272592 0.57040592 0.37622519 0.86167704 0.13349925 0.30340741 0.26699852 0.60681482 0.41263407 0.91022223l0.36408889 0.72817777c0.16990815 0.32768 0.32768 0.6674963 0.50972445 0.9951763 0.10922667 0.20631703 0.23058963 0.41263408 0.35195259 0.6310874 0.19418075 0.35195259 0.38836148 0.69176889 0.59467851 1.03158519 0.12136297 0.19418075 0.24272592 0.37622518 0.3519526 0.57040592 0.21845333 0.3398163 0.43690667 0.69176889 0.65536 1.03158519 0.13349925 0.19418075 0.26699852 0.37622518 0.38836148 0.57040593l0.69176889 0.98304c0.15777185 0.20631703 0.3155437 0.41263408 0.48545186 0.6189511 0.21845333 0.29127111 0.44904297 0.58254222 0.67963258 0.86167704 0.23058963 0.27913482 0.46117925 0.54613333 0.69176889 0.81313186 0.18204445 0.20631703 0.35195259 0.42477037 0.54613333 0.6189511 0.86167703 0.95876741 1.77189925 1.85685333 2.73066667 2.73066667 0.20631703 0.19418075 0.42477037 0.37622518 0.6432237 0.55826963 0.26699852 0.23058963 0.52186075 0.46117925 0.78885926 0.6796326 0.29127111 0.24272592 0.58254222 0.46117925 0.88594964 0.69176888 0.20631703 0.15777185 0.40049778 0.3155437 0.60681481 0.46117926 0.32768 0.24272592 0.6674963 0.48545185 1.00731259 0.71604149 0.18204445 0.12136297 0.35195259 0.25486222 0.53399703 0.37622517 0.35195259 0.23058963 0.70390518 0.46117925 1.05585778 0.6796326 0.18204445 0.10922667 0.35195259 0.23058963 0.53399705 0.3398163 0.35195259 0.20631703 0.70390518 0.41263408 1.06799407 0.6189511a26.2350317 26.2350317 0 0 0 1.6262637 0.84954075c0.23058963 0.10922667 0.46117925 0.23058963 0.6917689 0.3398163 0.3155437 0.14563555 0.63108741 0.29127111 0.9466311 0.42477037 0.26699852 0.12136297 0.53399703 0.24272592 0.81313185 0.35195258 0.29127111 0.12136297 0.57040592 0.23058963 0.86167705 0.3398163 0.3155437 0.12136297 0.61895111 0.24272592 0.9344948 0.3519526l0.76458667 0.25486222c0.35195259 0.12136297 0.70390518 0.23058963 1.05585778 0.3398163 0.23058963 0.07281778 0.46117925 0.13349925 0.69176889 0.19418074 0.37622518 0.10922667 0.76458667 0.21845333 1.15294814 0.3155437 0.21845333 0.04854518 0.43690667 0.09709037 0.65536 0.15777186 0.40049778 0.09709037 0.78885925 0.18204445 1.18935705 0.26699851 0.23058963 0.04854518 0.44904297 0.08495408 0.67963259 0.12136297 0.38836148 0.07281778 0.78885925 0.14563555 1.18935703 0.19418073 0.26699852 0.03640889 0.52186075 0.07281778 0.78885927 0.09709037 0.36408889 0.04854518 0.71604148 0.09709037 1.08013036 0.13349927 0.35195259 0.03640889 0.71604148 0.06068148 1.06799408 0.08495407 0.27913482 0.02427259 0.54613333 0.04854518 0.82526814 0.06068148 0.6432237 0.03640889 1.28644741 0.04854518 1.94180742 0.04854518H978.03377778c21.44483555 0 38.83614815-17.39131259 38.83614814-38.83614814s-17.39131259-38.83614815-38.83614814-38.83614816H753.28170667l244.38859851-244.3885985c15.17037037-15.17037037 15.17037037-39.75850667 0-54.91674075-7.58518518-7.58518518-17.52481185-11.37170963-27.46443851-11.37170963s-19.87925333 3.78652445-27.46443852 11.37170963L698.36496592 270.71829333V45.96622222c0-21.44483555-17.39131259-38.83614815-38.83614814-38.83614814s-38.83614815 17.39131259-38.83614815 38.83614814v318.72341333zM45.96622222 698.36496592h224.75207111L26.32969482 942.75356445c-15.17037037 15.17037037-15.17037037 39.75850667 0 54.92887703s39.75850667 15.17037037 54.91674073 0l244.38859853-244.38859851V978.03377778c0 21.44483555 17.39131259 38.83614815 38.83614814 38.83614814s38.83614815-17.39131259 38.83614815-38.83614814V659.52881778v-0.09709037c0-0.60681482-0.0121363-1.21362963-0.04854519-1.82044444-0.0121363-0.3155437-0.04854518-0.63108741-0.07281777-0.93449482-0.02427259-0.3155437-0.03640889-0.63108741-0.07281778-0.9587674-0.03640889-0.38836148-0.08495408-0.77672297-0.13349926-1.15294816-0.03640889-0.24272592-0.06068148-0.47331555-0.08495407-0.71604148-0.06068148-0.41263408-0.13349925-0.82526815-0.20631705-1.23790222l-0.10922666-0.63108741c-0.08495408-0.41263408-0.16990815-0.82526815-0.26699851-1.23790223l-0.14563556-0.6189511c-0.09709037-0.40049778-0.20631703-0.78885925-0.3155437-1.17722074l-0.18204445-0.65536c-0.10922667-0.36408889-0.23058963-0.72817778-0.35195259-1.08013038-0.08495408-0.24272592-0.15777185-0.49758815-0.25486223-0.74031406-0.12136297-0.32768-0.24272592-0.6432237-0.36408888-0.95876742l-0.32768-0.83740444c-0.10922667-0.27913482-0.24272592-0.54613333-0.35195259-0.82526814-0.13349925-0.3155437-0.27913482-0.63108741-0.42477038-0.94663112-0.10922667-0.23058963-0.23058963-0.46117925-0.33981629-0.69176888-0.16990815-0.3398163-0.3398163-0.67963259-0.52186074-1.01944889l-0.32768-0.58254223c-0.20631703-0.36408889-0.40049778-0.71604148-0.61895112-1.08013037-0.10922667-0.16990815-0.21845333-0.3398163-0.32768-0.52186073-0.23058963-0.36408889-0.44904297-0.72817778-0.69176888-1.08013038-0.10922667-0.16990815-0.23058963-0.32768-0.35195259-0.49758815-0.24272592-0.35195259-0.48545185-0.70390518-0.74031408-1.04372147-0.13349925-0.18204445-0.27913482-0.36408889-0.42477037-0.54613334-0.24272592-0.3155437-0.48545185-0.63108741-0.74031408-0.94663111-0.18204445-0.23058963-0.38836148-0.44904297-0.58254222-0.6796326l-0.65536-0.76458667c-0.35195259-0.40049778-0.72817778-0.77672297-1.10440296-1.15294814-0.07281778-0.07281778-0.14563555-0.15777185-0.21845334-0.23058964s-0.15777185-0.14563555-0.24272592-0.23058962c-0.37622518-0.36408889-0.75245037-0.74031408-1.15294814-1.09226666-0.25486222-0.23058963-0.50972445-0.43690667-0.76458667-0.65536-0.23058963-0.19418075-0.44904297-0.38836148-0.6796326-0.58254222-0.3155437-0.25486222-0.63108741-0.49758815-0.94663111-0.74031408-0.18204445-0.13349925-0.35195259-0.27913482-0.53399704-0.41263408-0.3398163-0.25486222-0.69176889-0.49758815-1.04372147-0.74031407l-0.49758816-0.3519526c-0.35195259-0.24272592-0.71604148-0.47331555-1.08013037-0.69176889-0.16990815-0.10922667-0.3398163-0.21845333-0.50972444-0.3155437-0.35195259-0.21845333-0.71604148-0.42477037-1.08013036-0.61895111l-0.58254223-0.32768c-0.3398163-0.18204445-0.69176889-0.35195259-1.03158519-0.53399704-0.23058963-0.10922667-0.46117925-0.23058963-0.69176888-0.33981629-0.3155437-0.14563555-0.63108741-0.29127111-0.94663112-0.42477037-0.26699852-0.12136297-0.54613333-0.24272592-0.81313185-0.3519526-0.27913482-0.12136297-0.57040592-0.23058963-0.84954073-0.33981629-0.3155437-0.12136297-0.63108741-0.24272592-0.95876742-0.36408888-0.24272592-0.08495408-0.49758815-0.16990815-0.75245036-0.25486223-0.36408889-0.12136297-0.71604148-0.24272592-1.08013038-0.3519526-0.21845333-0.06068148-0.44904297-0.12136297-0.66749629-0.19418074-0.38836148-0.10922667-0.77672297-0.21845333-1.17722075-0.3155437-0.20631703-0.04854518-0.41263408-0.09709037-0.6310874-0.14563556-0.41263408-0.09709037-0.81313185-0.18204445-1.22576593-0.26699851-0.20631703-0.03640889-0.42477037-0.07281778-0.6432237-0.10922666-0.40049778-0.07281778-0.81313185-0.14563555-1.22576593-0.20631705-0.24272592-0.03640889-0.49758815-0.06068148-0.74031407-0.09709037-0.37622518-0.04854518-0.75245037-0.09709037-1.12867555-0.13349925-0.32768-0.03640889-0.65536-0.04854518-0.98304-0.07281778-0.30340741-0.02427259-0.60681482-0.04854518-0.91022222-0.06068148-0.6432237-0.03640889-1.27431111-0.04854518-1.91753483-0.04854519H45.96622222c-21.44483555 0-38.83614815 17.39131259-38.83614814 38.83614815s17.39131259 38.83614815 38.83614814 38.83614814z m584.14421333-64.17673481c-0.20631703 0.23058963-0.41263408 0.46117925-0.6068148 0.70390519-0.25486222 0.30340741-0.49758815 0.61895111-0.74031408 0.93449481-0.14563555 0.18204445-0.29127111 0.36408889-0.42477037 0.54613334-0.25486222 0.3398163-0.49758815 0.69176889-0.74031408 1.04372147l-0.35195259 0.49758816c-0.24272592 0.35195259-0.47331555 0.71604148-0.69176888 1.08013037-0.10922667 0.16990815-0.21845333 0.3398163-0.31554372 0.50972444-0.21845333 0.35195259-0.42477037 0.71604148-0.61895111 1.08013036-0.10922667 0.19418075-0.21845333 0.38836148-0.3155437 0.57040593-0.18204445 0.3398163-0.35195259 0.69176889-0.53399704 1.03158519-0.10922667 0.23058963-0.23058963 0.44904297-0.33981629 0.6796326-0.14563555 0.3155437-0.29127111 0.63108741-0.43690667 0.9587674-0.12136297 0.26699852-0.24272592 0.53399703-0.35195259 0.81313185-0.12136297 0.27913482-0.23058963 0.57040592-0.3398163 0.84954075l-0.36408888 0.94663111c-0.08495408 0.25486222-0.16990815 0.49758815-0.25486223 0.75245037-0.12136297 0.36408889-0.24272592 0.71604148-0.35195259 1.08013037-0.06068148 0.21845333-0.12136297 0.43690667-0.19418074 0.66749629-0.10922667 0.38836148-0.21845333 0.77672297-0.31554371 1.17722074l-0.14563555 0.61895112c-0.09709037 0.41263408-0.18204445 0.81313185-0.26699852 1.22576592l-0.10922666 0.63108741c-0.07281778 0.41263408-0.14563555 0.81313185-0.20631704 1.22576592-0.03640889 0.24272592-0.06068148 0.48545185-0.09709038 0.72817778-0.04854518 0.37622518-0.09709037 0.76458667-0.13349925 1.15294815-0.03640889 0.3155437-0.04854518 0.63108741-0.07281778 0.9587674l-0.07281778 0.93449482c-0.02427259 0.60681482-0.04854518 1.21362963-0.04854519 1.82044445V978.03377778c0 21.44483555 17.39131259 38.83614815 38.83614815 38.83614814s38.83614815-17.39131259 38.83614815-38.83614814V753.28170667l244.38859852 244.38859851c15.17037037 15.17037037 39.75850667 15.17037037 54.91674074 0 15.17037037-15.17037037 15.17037037-39.75850667 0-54.91674073L753.28170667 698.36496592H978.03377778c21.44483555 0 38.83614815-17.39131259 38.83614814-38.83614814s-17.39131259-38.83614815-38.83614814-38.83614815H659.51668148c-0.6432237 0-1.28644741 0.0121363-1.91753481 0.04854519-0.30340741 0.0121363-0.60681482 0.04854518-0.91022222 0.06068148l-0.98304 0.07281778c-0.37622518 0.03640889-0.75245037 0.08495408-1.12867556 0.13349925-0.24272592 0.03640889-0.49758815 0.06068148-0.74031407 0.09709037-0.41263408 0.06068148-0.81313185 0.13349925-1.21362964 0.20631705l-0.6432237 0.10922666c-0.41263408 0.08495408-0.81313185 0.16990815-1.22576593 0.26699851l-0.6189511 0.14563556c-0.40049778 0.09709037-0.78885925 0.20631703-1.17722075 0.3155437-0.21845333 0.06068148-0.44904297 0.12136297-0.66749629 0.19418074-0.36408889 0.10922667-0.71604148 0.23058963-1.08013038 0.3519526-0.25486222 0.08495408-0.49758815 0.16990815-0.75245036 0.25486223-0.3155437 0.10922667-0.6432237 0.24272592-0.95876742 0.36408888-0.27913482 0.10922667-0.57040592 0.21845333-0.84954073 0.33981629-0.27913482 0.10922667-0.54613333 0.23058963-0.82526815 0.3519526-0.3155437 0.13349925-0.63108741 0.27913482-0.94663112 0.42477037-0.23058963 0.10922667-0.46117925 0.23058963-0.69176888 0.33981629-0.3398163 0.16990815-0.67963259 0.3398163-1.01944889 0.52186074-0.19418075 0.10922667-0.38836148 0.21845333-0.59467851 0.32768-0.36408889 0.20631703-0.71604148 0.40049778-1.06799408 0.61895111-0.18204445 0.10922667-0.35195259 0.21845333-0.53399704 0.32768-0.36408889 0.21845333-0.71604148 0.44904297-1.06799407 0.6796326-0.16990815 0.12136297-0.3398163 0.24272592-0.52186075 0.36408889-0.3398163 0.24272592-0.69176889 0.47331555-1.01944888 0.72817778-0.19418075 0.14563555-0.37622518 0.29127111-0.55826963 0.43690667-0.30340741 0.24272592-0.61895111 0.47331555-0.92235852 0.72817778a37.62251852 37.62251852 0 0 0-0.71604148 0.6189511 37.62251852 37.62251852 0 0 0-0.71604149 0.61895112c-0.43690667 0.40049778-0.87381333 0.81313185-1.2985837 1.22576592-0.03640889 0.03640889-0.06068148 0.06068148-0.09709036 0.08495408l-0.10922667 0.10922666c-0.41263408 0.41263408-0.81313185 0.83740445-1.21362963 1.27431112-0.20631703 0.25486222-0.41263408 0.50972445-0.61895112 0.75245036z" p-id="1532"></path></svg>