<?xml version="1.0" standalone="no"?><!DOCTYPE svg PUBLIC "-//W3C//DTD SVG 1.1//EN" "http://www.w3.org/Graphics/SVG/1.1/DTD/svg11.dtd"><svg t="1662371670206" class="icon" viewBox="0 0 1024 1024" version="1.1" xmlns="http://www.w3.org/2000/svg" p-id="1382" xmlns:xlink="http://www.w3.org/1999/xlink" width="200" height="200"><path d="M884.16711111 836.43733333H142.10844445c-74.18311111 0-134.54222222-59.4944-134.54222223-132.61937778V174.30755555c0-73.12497778 60.35911111-132.61937778 134.54222223-132.61937777h742.05866666c74.18311111 0 134.54222222 59.4944 134.54222222 132.61937777v529.5104c0 73.12497778-60.35911111 132.61937778-134.54222222 132.61937778zM142.10844445 108.47573333c-37.36462222 0-67.75466667 29.53671111-67.75466667 65.83182222v529.5104c0 36.29511111 30.39004445 65.83182222 67.75466667 65.83182223h742.05866666c37.36462222 0 67.75466667-29.53671111 67.75466667-65.83182223V174.30755555c0-36.29511111-30.39004445-65.83182222-67.75466667-65.83182222H142.10844445z m734.79964444 842.56995556c0-20.10453333-16.30435555-36.40888889-36.40888889-36.40888889H185.00266667c-20.10453333 0-36.40888889 16.30435555-36.40888889 36.40888889s16.30435555 36.40888889 36.40888889 36.40888889h655.48515555c20.11591111 0 36.42026667-16.30435555 36.42026667-36.40888889z m-328.28302222-220.61511111c15.9744-0.3072 29.87804445-10.99093333 34.28124444-26.35093333l109.07875556-379.56266667 39.98151111 160.1536c4.05048889 16.21333333 18.61404445 27.59111111 35.328 27.59111111h108.97635555c20.10453333 0 36.40888889-16.30435555 36.40888889-36.40888889s-16.30435555-36.40888889-36.40888889-36.40888889h-80.54328888L729.77066667 175.28604445c-3.9936-15.98577778-18.21582222-27.29528889-34.67946667-27.57973334-16.46364445-0.27306667-31.08408889 10.51306667-35.6352 26.35093334L545.53031111 570.52728889l-34.98666666-106.07502222c-4.92657778-14.92764445-18.86435555-25.00835555-34.57706667-25.00835556h-86.09564445l-63.56764444-125.81546666a36.40775111 36.40775111 0 0 0-32.49493334-19.99075556h-0.17066666a36.43619555 36.43619555 0 0 0-32.48355556 20.28657778l-61.97475555 125.51964444h-50.19875556c-20.10453333 0-36.40888889 16.30435555-36.40888889 36.40888889s16.30435555 36.40888889 36.40888889 36.40888889h72.82915556c13.85813333 0 26.51022222-7.86204445 32.64284444-20.28657778l39.7312-80.45226666 40.80071111 80.74808888a36.41571555 36.41571555 0 0 0 32.49493334 19.99075556h82.15893333l63.70417778 193.17191111a36.40092445 36.40092445 0 0 0 34.56568889 25.00835555c0.23893333 0 0.47786667 0 0.7168-0.01137777z" p-id="1383"></path></svg>