<svg t="1662371552966" class="icon" viewBox="0 0 1024 1024" version="1.1" xmlns="http://www.w3.org/2000/svg" p-id="1322" width="200" height="200"><path d="M950.57 905.43L835.43 790.28c30.09-34.74 54.36-73.71 72.33-116.2 22.91-54.16 34.52-111.67 34.52-170.94s-11.62-116.78-34.52-170.94c-22.12-52.3-53.78-99.26-94.1-139.58-40.32-40.32-87.28-71.98-139.58-94.1C619.93 75.62 562.41 64 503.14 64S386.36 75.62 332.2 98.52c-52.3 22.12-99.26 53.78-139.58 94.1s-71.98 87.28-94.1 139.58C75.62 386.36 64 443.87 64 503.14s11.62 116.78 34.52 170.94c22.12 52.3 53.78 99.26 94.1 139.58 40.32 40.32 87.28 71.98 139.58 94.1 54.16 22.91 111.67 34.52 170.94 34.52s116.78-11.62 170.94-34.52c42.44-17.95 81.37-42.19 116.08-72.23l115.15 115.15c6.25 6.25 14.44 9.37 22.63 9.37s16.38-3.12 22.63-9.37c6.25-6.25 9.37-14.44 9.37-22.63s-3.12-16.38-9.37-22.62z m-447.43-27.14C296.29 878.29 128 710 128 503.14 128 296.29 296.29 128 503.14 128 710 128 878.29 296.29 878.29 503.14 878.29 710 710 878.29 503.14 878.29z" p-id="1323"></path></svg>