<?xml version="1.0" standalone="no"?><!DOCTYPE svg PUBLIC "-//W3C//DTD SVG 1.1//EN" "http://www.w3.org/Graphics/SVG/1.1/DTD/svg11.dtd"><svg t="1662432771033" class="icon" viewBox="0 0 1024 1024" version="1.1" xmlns="http://www.w3.org/2000/svg" p-id="1532" xmlns:xlink="http://www.w3.org/1999/xlink" width="200" height="200"><path d="M695.81937778 490.9056c-14.26773333-14.16533333-14.35875555-37.21671111-0.19342223-51.48444445s37.21671111-14.35875555 51.48444445-0.19342222l120.7296 119.808c14.32462222 14.22222222 14.35875555 37.38737778 0.05688889 51.63235556L747.73617778 730.40782222c-14.24497778 14.19946667-37.29635555 14.15395555-51.48444445-0.09102222-14.19946667-14.24497778-14.15395555-37.29635555 0.09102222-51.48444445l94.23075556-93.9008-94.75413333-94.02595555zM401.98826667 730.3168c16.0768 12.07182222 38.90062222 8.82915555 50.97244444-7.24764445l174.76266667-232.67555555c12.07182222-16.0768 8.82915555-38.90062222-7.24764445-50.97244445-16.0768-12.07182222-38.90062222-8.82915555-50.97244444 7.24764445l-174.76266667 232.67555555c-12.07182222 16.0768-8.82915555 38.90062222 7.24764445 50.97244445z m-119.48942222-0.1024c14.18808889 14.24497778 37.23946667 14.30186667 51.48444444 0.11377778 14.24497778-14.18808889 14.30186667-37.23946667 0.11377778-51.48444445l-93.55946667-93.95768888 93.55946667-93.9576889c14.18808889-14.24497778 14.14257778-37.29635555-0.11377778-51.48444444-14.24497778-14.18808889-37.29635555-14.14257778-51.48444444 0.11377778L163.36213333 559.18364445c-14.14257778 14.21084445-14.14257778 37.1712 0 51.38204444l119.13671112 119.64871111zM1021.72444445 168.63004445v684.12302222c0 72.87466667-59.27822222 132.15288889-132.1528889 132.15288888H136.71537778C63.84071111 984.90595555 4.55111111 925.61635555 4.55111111 852.75306667V168.63004445c0-71.65724445 58.29973333-129.95697778 129.96835556-129.95697778h757.23662222c71.65724445 0 129.96835555 58.29973333 129.96835556 129.95697778z m-72.81777778 161.57582222H77.36888889v522.5472c0 32.72248889 26.61262222 59.33511111 59.33511111 59.33511111h752.85617778c32.72248889 0 59.33511111-26.61262222 59.33511111-59.33511111V330.20586667z m0-72.81777778v-88.75804444c0-31.50506667-25.63413333-57.1392-57.1392-57.1392H134.51946667c-31.50506667 0-57.15057778 25.63413333-57.15057778 57.1392v88.75804444h871.53777778z" p-id="1533"></path></svg>