<?xml version="1.0" standalone="no"?><!DOCTYPE svg PUBLIC "-//W3C//DTD SVG 1.1//EN" "http://www.w3.org/Graphics/SVG/1.1/DTD/svg11.dtd"><svg t="1665718022785" class="icon" viewBox="0 0 1024 1024" version="1.1" xmlns="http://www.w3.org/2000/svg" p-id="5239" xmlns:xlink="http://www.w3.org/1999/xlink" width="200" height="200"><path d="M673.56 493.46c-12.54-12.45-12.62-32.71-0.17-45.25s32.71-12.62 45.25-0.17l106.11 105.3c12.59 12.5 12.62 32.86 0.05 45.38L719.19 703.96c-12.52 12.48-32.78 12.44-45.25-0.08-12.48-12.52-12.44-32.78 0.08-45.25l82.82-82.53-83.28-82.64zM415.31 703.88c14.13 10.61 34.19 7.76 44.8-6.37l153.6-204.5c10.61-14.13 7.76-34.19-6.37-44.8-14.13-10.61-34.19-7.76-44.8 6.37l-153.6 204.5c-10.61 14.13-7.76 34.19 6.37 44.8z m-105.02-0.09c12.47 12.52 32.73 12.57 45.25 0.1 12.52-12.47 12.57-32.73 0.1-45.25l-82.23-82.58 82.23-82.58c12.47-12.52 12.43-32.78-0.1-45.25-12.52-12.47-32.78-12.43-45.25 0.1L205.58 553.47c-12.43 12.49-12.43 32.67 0 45.16l104.71 105.16zM960 210.21v601.28c0 64.05-52.1 116.15-116.15 116.15H182.16C118.11 927.64 66 875.53 66 811.49V210.21c0-62.98 51.24-114.22 114.23-114.22h665.54c62.98 0 114.23 51.24 114.23 114.22z m-64 142.01H130v459.27c0 28.76 23.39 52.15 52.15 52.15h661.69c28.76 0 52.15-23.39 52.15-52.15V352.22z m0-64v-78.01c0-27.69-22.53-50.22-50.22-50.22H180.23c-27.69 0-50.23 22.53-50.23 50.22v78.01h766z" fill="#153151" p-id="5240"></path></svg>