<?xml version="1.0" standalone="no"?><!DOCTYPE svg PUBLIC "-//W3C//DTD SVG 1.1//EN" "http://www.w3.org/Graphics/SVG/1.1/DTD/svg11.dtd"><svg t="1665718028458" class="icon" viewBox="0 0 1024 1024" version="1.1" xmlns="http://www.w3.org/2000/svg" p-id="5539" xmlns:xlink="http://www.w3.org/1999/xlink" width="200" height="200"><path d="M293.49 156c9.76 0 18.56 3.65 25.46 10.54l90.51 90.51c17.38 17.38 40.48 26.95 65.05 26.95H864c19.85 0 36 16.15 36 36v512c0 19.85-16.15 36-36 36H160c-19.85 0-36-16.15-36-36V192c0-19.85 16.15-36 36-36h133.49m0-60H160c-52.93 0-96 43.07-96 96v640c0 52.93 43.07 96 96 96h704c52.93 0 96-43.07 96-96V320c0-52.93-43.07-96-96-96H474.51c-8.55 0-16.58-3.33-22.63-9.37l-90.51-90.51C343.24 105.99 319.13 96 293.49 96z m376.84 397.44c-12.54-12.45-12.62-32.71-0.17-45.25s32.71-12.62 45.25-0.17l106.11 105.3c12.59 12.5 12.62 32.86 0.05 45.38L715.96 703.94c-12.52 12.48-32.78 12.44-45.25-0.08-12.48-12.52-12.44-32.78 0.08-45.25l82.82-82.53-83.28-82.64zM412.08 703.86c14.13 10.61 34.19 7.76 44.8-6.37l153.6-204.5c10.61-14.13 7.76-34.19-6.37-44.8-14.13-10.61-34.19-7.76-44.8 6.37l-153.6 204.5c-10.61 14.13-7.76 34.19 6.37 44.8z m-105.02-0.09c12.47 12.52 32.73 12.57 45.25 0.1 12.52-12.47 12.57-32.73 0.1-45.25l-82.23-82.58 82.23-82.58c12.47-12.52 12.43-32.78-0.1-45.25-12.52-12.47-32.78-12.43-45.25 0.1L202.34 553.44c-12.43 12.49-12.43 32.67 0 45.16l104.72 105.17z" fill="#153151" p-id="5540"></path></svg>