<?xml version="1.0" standalone="no"?><!DOCTYPE svg PUBLIC "-//W3C//DTD SVG 1.1//EN" "http://www.w3.org/Graphics/SVG/1.1/DTD/svg11.dtd"><svg t="1662188230028" class="icon" viewBox="0 0 1024 1024" version="1.1" xmlns="http://www.w3.org/2000/svg" p-id="1352" xmlns:xlink="http://www.w3.org/1999/xlink" width="200" height="200"><path d="M981.65191111 313.58293333c-25.67964445-60.70044445-62.41848889-115.21137778-109.22666666-162.00817778-46.7968-46.7968-101.30773333-83.54702222-162.00817778-109.22666666C647.55484445 15.75822222 580.80142222 2.27555555 512 2.27555555c-68.80142222 0-135.55484445 13.48266667-198.41706667 40.07253334-60.70044445 25.67964445-115.21137778 62.41848889-162.00817778 109.22666666-46.7968 46.7968-83.54702222 101.30773333-109.22666666 162.00817778C15.75822222 376.44515555 2.27555555 443.19857778 2.27555555 512c0 68.80142222 13.48266667 135.55484445 40.07253334 198.41706667 25.67964445 60.70044445 62.41848889 115.21137778 109.22666666 162.00817778s101.30773333 83.54702222 162.00817778 109.22666666C376.44515555 1008.24177778 443.19857778 1021.72444445 512 1021.72444445c68.80142222 0 135.55484445-13.48266667 198.41706667-40.07253334 60.70044445-25.67964445 115.21137778-62.41848889 162.00817778-109.22666666 46.7968-46.7968 83.54702222-101.30773333 109.22666666-162.00817778C1008.24177778 647.55484445 1021.72444445 580.79004445 1021.72444445 512c0-68.80142222-13.48266667-135.55484445-40.07253334-198.41706667zM512 948.90666667c-141.64195555 0-267.76462222-67.75466667-347.648-172.56675556C248.04693333 669.86666667 376.16071111 607.00444445 512 607.00444445c135.83928889 0 263.96444445 62.85084445 347.648 169.33546666C779.76462222 881.14062222 653.64195555 948.90666667 512 948.90666667zM379.81297778 402.01102222c0-72.88604445 59.30097778-132.18702222 132.18702222-132.18702222s132.18702222 59.30097778 132.18702222 132.18702222S584.88604445 534.19804445 512 534.19804445s-132.18702222-59.30097778-132.18702222-132.18702223z m520.76088889 309.62346667c-41.2672-47.43395555-91.10186667-87.33582222-146.39786667-116.91804444-32.95004445-17.62417778-67.82293333-31.5392-103.82222222-41.56302223 40.93724445-37.50115555 66.65102222-91.37493333 66.65102222-151.13102222 0-113.03822222-91.96657778-205.0048-205.0048-205.0048-113.03822222 0-205.0048 91.96657778-205.0048 205.0048 0 59.76746667 25.71377778 113.62986667 66.65102222 151.1424-35.99928889 10.02382222-70.87217778 23.93884445-103.82222222 41.56302222-55.296 29.58222222-105.13066667 69.48408889-146.39786667 116.91804445C92.54684445 651.76462222 75.09333333 583.8848 75.09333333 512c0-240.91306667 195.9936-436.90666667 436.90666667-436.90666667s436.90666667 195.9936 436.90666667 436.90666667c0 71.8848-17.45351111 139.76462222-48.3328 199.63448889z" p-id="1353"></path></svg>