
<svg t="1674964365294" class="icon" viewBox="0 0 1024 1024" version="1.1" xmlns="http://www.w3.org/2000/svg" p-id="3502" width="200" height="200"><path d="M710.460952 938.666667h-621.714285V219.428571a146.285714 146.285714 0 0 1 146.285714-146.285714h475.428571v73.142857h-451.047619a97.52381 97.52381 0 0 0-97.523809 97.52381v694.857143h548.571428z" fill="#2c2c2c" opacity=".1" p-id="3503"></path><path d="M527.60381 390.095238h-219.428572a36.571429 36.571429 0 0 1 0-73.142857h219.428572a36.571429 36.571429 0 0 1 0 73.142857z m0 170.666667h-219.428572a36.571429 36.571429 0 0 1 0-73.142857h219.428572a36.571429 36.571429 0 0 1 0 73.142857z m109.714285 438.857143h-451.047619a146.285714 146.285714 0 0 1-146.285714-146.285715V170.666667a146.285714 146.285714 0 0 1 146.285714-146.285715h451.047619a146.285714 146.285714 0 0 1 146.285715 146.285715v85.333333h-2.194286a36.425143 36.425143 0 0 1-68.754286 0h-2.194286v-60.952381a97.52381 97.52381 0 0 0-97.523809-97.523809h-402.285714a97.52381 97.52381 0 0 0-97.52381 97.523809v633.904762a97.52381 97.52381 0 0 0 97.52381 97.523809h402.285714a97.52381 97.52381 0 0 0 97.523809-97.523809V536.380952h2.194286a36.425143 36.425143 0 0 1 68.754286 0h2.194286v316.952381a146.285714 146.285714 0 0 1-146.285715 146.285715z" fill="#2c2c2c" p-id="3504"></path><path d="M973.287619 275.334095l-206.872381 206.872381a36.668952 36.668952 0 0 1-51.809524 0l-120.685714-120.685714a36.608 36.608 0 1 1 51.809524-51.724191l94.72 94.817524 181.028571-181.016381a36.608 36.608 0 0 1 51.809524 51.736381z" fill="#2c2c2c" p-id="3505"></path></svg>